<svg viewBox="0 0 575 575" class="roots-wrapper"><g transform="rotate(0 0 0)"><svg data-root-id="7941494661189" xmlns="http://www.w3.org/2000/svg" id="Layer_1" dataName="Layer 1" viewBox="-4.93994140625 -4.989990234375 280.18994140625 364.760009765625" height="197" width="150.04" y="188" x="201.99" preserveAspectRatio="xMinYMin" zoom="1" editorType="buyer" data-layer-role="icon" style="position: absolute; height: 197px; width: 150.04px; top: 188px; left: 201.99px;"><path class="cls-1" d="M631.69,594.49l3.44-4.71-3.44-4.71,2.89-5.06-3.93-4.3,2.3-5.35-4.39-3.83,1.69-5.58-4.8-3.31,1-5.74-5.14-2.74.4-5.82-5.42-2.15-.25-5.83-5.63-1.53-.9-5.76-5.76-.9-1.53-5.63-5.83-.25-2.15-5.42-5.82.4-2.75-5.14-5.73,1-3.31-4.8-5.58,1.69-3.83-4.4L561.92,507l-4.3-3.94-5.07,2.9-.67-.5V494.51a96.78,96.78,0,0,1,15.83,2l6.36-5.7a102.6,102.6,0,0,0-22.19-3.3V456.82l1.78-2.19-.89-2.77,6.65-4.62a2.92,2.92,0,1,0-3.33-4.8l-5.91,4.1-4.7-.24-7.88-2.44-.74.19,0-.07-1.81-1,.1-.35s-29.75-14.35-34.92-19.52-7.92-17.5-5.79-21.19c0,0-1.43-2.45-3.76-5.7l.11-.78.37.84.82-.46,2.31-4v-.49a2,2,0,0,0-.92.26c-.46.27-2.43-1.79-2.43-1.79l-.32,1.37a2.26,2.26,0,0,0-.11-.22,6.2,6.2,0,0,0,.43-1.15l1.47-4.24s8.33-.79,8.74-.56,1.93-1.67,1.93-1.67v-1.53l-1-1.22v-.66l.46-.8-.44-.77-.27-.67v-.45l1.27-.51v-2.39l-.56-.46,1.42-.45h.61l.36-1.58-.21-.37-3.5-4.1.41-2.08-3-6.53c3.8.37,6.3.78,6.3.78v-3.35c-2.07-.4-4.06-.71-6-1l3.72-27.61-3.23-4.93L466.87,326l-2.75,1.59,7.18,28.6A38.64,38.64,0,0,0,463,359l2.38,4.12a21.31,21.31,0,0,1,6.29-3l-.11.1v8.08l1.6,4.06s1.86,5.24,1.73,6.8l-.22,0-.7,1.74a12.81,12.81,0,0,0-1.27-.36l-2.74,5.18-4.58,5.49-6.55,14.49s5.94,59.6-28.81,88c8.63.52,18.49-7.83,18.49-7.83s-5.68,12.31-13.88,17.43c15.44,0,33.74-5.72,48.33-12.41,5.77,2.24,12.79,4.36,18.84,6a14.44,14.44,0,0,1-3.46,3.26l-.2.15a102.44,102.44,0,0,0-52.43,83c-.14,1.79-4.55,7.91-8.68,13.3a11.38,11.38,0,0,0-14.1,16l-15.26,15.25-.55-1.37-1.83.13-.87-1.62-1.81.33-1-1.52-1.77.54-1.2-1.39-1.69.73-1.36-1.24-1.6.91-1.49-1.09-1.48,1.09-1.6-.91L388,623.68l-1.69-.73-1.21,1.39-1.76-.54-1,1.52-1.81-.33-.87,1.62-1.84-.13-.68,1.71-1.83.08-.49,1.78-1.82.28-.28,1.82-1.78.49-.08,1.83-1.71.68.13,1.84-1.62.87.33,1.81-1.51,1,.53,1.76-1.39,1.21.73,1.69-1.24,1.36.91,1.6-1.08,1.48L366,651.3l-.91,1.6,1.24,1.35-.73,1.69,1.39,1.21-.54,1.76,1.52,1.05-.33,1.81,1.62.87-.13,1.83,1.71.68.08,1.84,1.78.49.28,1.81,1.82.29.49,1.77,1.83.08.68,1.72,1.84-.13.87,1.62,1.81-.33,1,1.51,1.76-.53,1.21,1.39L388,676l1.36,1.24,1.6-.91,1.48,1.08,1.49-1.08,1.6.91,1.35-1.24,1.69.73,1.21-1.39,1.76.53,1.05-1.51,1.81.33.87-1.62,1.83.13.68-1.72,1.84-.08.49-1.77,1.81-.29.29-1.81L414,667l.08-1.84,1.71-.68-.13-1.83,1.62-.87-.33-1.81,1.51-1.05-.53-1.76,1.39-1.21-.73-1.68,1.24-1.36-.91-1.6,1.08-1.49-1.08-1.48.91-1.6-1.24-1.36.73-1.69-1.39-1.21.53-1.76-1.51-1,.33-1.81-1.62-.87.13-1.84-1.71-.68-.07-1.55,15-15a11.37,11.37,0,0,0,13.68-16.6c4.6-6.7,9.76-14.77,10-17.57a95.51,95.51,0,0,1,62.26-83.51l.52.12s-7.72,6.95-9.05,9.25c-.49.86-2,3.19-3.95,6.33l-1.05-.07-2,4.94-.3.48-5.72.25-1.53,5.62-5.76.9-.9,5.76-5.63,1.54-.25,5.82-5.42,2.16.4,5.81-5.14,2.75,1.05,5.74-4.8,3.31,1.69,5.58-4.4,3.82,2.31,5.36L461.1,580l2.9,5.06-3.44,4.71,3.44,4.71-2.9,5.07,3.94,4.3-2.31,5.35,4.4,3.83-1.69,5.58,4.8,3.31-1.05,5.73,5.14,2.75-.4,5.81,5.42,2.16.25,5.82,5.62,1.54.9,5.76,5.76.9,1.54,5.62,5.82.26,2.16,5.42,5.81-.4,2.75,5.14,5.74-1.05,3.3,4.8,5.58-1.69,3.83,4.4,5.36-2.31,4.3,3.93,5.06-2.89,4.71,3.44,4.71-3.44,5.07,2.89,4.3-3.93,5.35,2.31,3.83-4.4,5.58,1.69,3.31-4.8,5.73,1.05,2.75-5.14,5.81.4,2.16-5.42,5.82-.25,1.54-5.63,5.76-.9.9-5.76,5.62-1.53.26-5.83,5.41-2.15-.39-5.82,5.14-2.75-1-5.73,4.8-3.31L628.56,613l4.39-3.83-2.3-5.35,3.93-4.3ZM399.12,634.15a6.26,6.26,0,0,1,4-1.81l-5.84,5.83A6.26,6.26,0,0,1,399.12,634.15Zm-4.9,20.3a.65.65,0,1,1,.41-.82A.64.64,0,0,1,394.22,654.45Zm-4.75-1.35a.65.65,0,0,1-.76-1.05.66.66,0,0,1,.91.14A.65.65,0,0,1,389.47,653.1Zm-1.32-5.77a.58.58,0,0,1,.1-.21.65.65,0,0,1,.34-.23ZM377.8,658.55a6.34,6.34,0,1,1,5.27-7.25A6.34,6.34,0,0,1,377.8,658.55Zm1.8-19.95a6.34,6.34,0,1,1,8.52,2.77A6.34,6.34,0,0,1,379.6,638.6Zm16.61,27.82a6.34,6.34,0,1,1-5.27-7.25A6.33,6.33,0,0,1,396.21,666.42Zm.53-16.24h0l.66-.66v0A.64.64,0,0,1,396.74,650.18Zm15.42,9.69a6.34,6.34,0,1,1-2.77-8.53A6.34,6.34,0,0,1,412.16,659.87Zm-4.07-16.75a6.31,6.31,0,0,1-6,1.66l7.63-7.63A6.32,6.32,0,0,1,408.09,643.12ZM567.93,539.69a20.09,20.09,0,0,1-16,19.68V520A20.1,20.1,0,0,1,567.93,539.69Zm-5.68,56.46a2,2,0,1,1-.9-2.76A2.05,2.05,0,0,1,562.25,596.15Zm-34.07-52.34,13.49.46,2.14-1v16.1A20.12,20.12,0,0,1,528.18,543.81Zm6.61,51a2,2,0,1,1-.64-4,2,2,0,1,1,.64,4Zm9-74.8v17.26a21,21,0,0,1-7.22.5c-2.05-.28-5.16-3-7.49-5.26A20.12,20.12,0,0,1,543.81,520Zm-.68-14.06-5.06-2.9-2.33,2.13,4.2-7.14v-3.26c1.29-.11,2.57-.2,3.87-.25v10.92Zm-6.86-61.68c-.24,1.29-1.81,8.9-4.65,11.85a5.36,5.36,0,0,1-2.17-.82c2.54-2.13,4.75-9.29,5.47-11.81Zm-23.21,5.64c2.13,0,10.67,4.27,15.4,6a1.87,1.87,0,0,0,.51-.22,5.84,5.84,0,0,0,2.77,1h.11l.08-.07a15.3,15.3,0,0,0,2.94-5.18,13.43,13.43,0,0,0,5.33,1.35,6.5,6.5,0,0,1,.95.06l-8.51,5.9a2.93,2.93,0,0,0,1.67,5.33,2.82,2.82,0,0,0,1.66-.53l7.84-5.43V487.2c-1.19-.11-2.39-.26-3.61-.45,1.94-5.78,3.49-10.26,3.2-12.1-.82-5.08-6.42-8.4-6.82-8.64s-22.92-3.38-31.22-4.55c-2.31-5.1-5.35-11.4-8-18.17C504,446.4,511.87,449.9,513.06,449.9ZM475,379.8c1.67.46,12.15,3.69,15.72,12.74l-.44,3c-3.83-5.25-9.79-12.2-15.8-14.47Zm6.13,188.29a20,20,0,0,1,3.43-6.32l1.25,3.44,2.85,2.84s6.91,9.55,11.28,10.88,3.13.6,3.13.6l1.34-1.42v-4.37l-4-4.47s-2.65-6.62-1.83-9.91a23,23,0,0,0,.46-5.1,20.08,20.08,0,1,1-18,13.83Zm53.56,74a20.09,20.09,0,1,1-4.45-28.06A20.09,20.09,0,0,1,534.65,642.12Zm4.38-63.2a2,2,0,1,1,2.76.89A2,2,0,0,1,539,578.92Zm9.55,24.83a2,2,0,1,1-1.7-2.34A2,2,0,0,1,548.58,603.75Zm-.74-7.71a6.26,6.26,0,1,1,6.26-6.26A6.26,6.26,0,0,1,547.84,596Zm7.61-15.1a2,2,0,1,1,2.9,0A2,2,0,0,1,555.45,580.94Zm33.65,65.63a20.09,20.09,0,1,1,4.44-28.07A20.09,20.09,0,0,1,589.1,646.57Zm12.6-53.16a20.09,20.09,0,1,1,12.89-25.32A20.09,20.09,0,0,1,601.7,593.41Z" transform="translate(-364.88 -322.64)" name="Layer 1" zoom="1" data-layer-id="2284950261195" style="fill: rgb(32, 44, 57); fill-opacity: 1;"></path></svg></g><g transform="rotate(0 0 0)"><svg data-root-id="0704713261204" xmlns="http://www.w3.org/2000/svg" y="360" viewBox="-253.7042694091797 -95.49437713623047 509.43994140625 95.62802124023438" x="32.11" height="95.63" width="509.44" fontUrl="http://fonts.gstatic.com/s/opensans/v18/mem8YaGs126MiZpBA-U1UpcaXcl0Aw.ttf" zoom="1" editorType="buyer" data-layer-role="slogan" style="position: absolute; top: 360px; width: 509.44px; height: 95.628px; left: 32.1093px;"><g data-horizontal-grow="center" zoom="1" root="[object Object]" style="fill: rgb(32, 44, 57); fill-opacity: 1;"><path d="M13.62-13.62Q15.02-13.09 16.42-11.29Q17.82-9.49 19.78-6.41L19.78-6.41Q21.11-4.24 21.84-3.24Q22.58-2.24 23.10-2.10L23.10-2.10L24.43-1.72L24.43 0L20.09 0Q19.29 0 18.29-1.38Q17.29-2.77 15.72-5.60L15.72-5.60Q13.93-8.79 12.74-10.43Q11.55-12.08 10.47-12.08L10.47-12.08L8.23-12.08L8.23-2.10L11.34-1.68L11.34 0L1.75 0L1.75-1.75L4.59-2.10L4.59-23.84L1.75-24.26L1.75-26.01L11.13-26.01L11.13-24.26L8.23-23.84L8.23-13.76L11.24-13.76L18.31-23.84L15.37-24.26L15.37-26.01L23.98-26.01L23.98-24.26L21.21-23.84L13.62-13.62Z" transform="translate(-12.32 0), rotate(30.36433601974878 13.090000000000002 -484.05807801842036)"></path><path d="M10.36-20.69Q10.36-14.39 9.64-9.57Q8.93-4.76 7.49-2.28L7.49-2.28Q6.76-1.02 5.81-0.42Q4.87 0.18 3.57 0.18L3.57 0.18Q1.89 0.18 1.09 0L1.09 0L0.84-2.84Q1.65-2.73 3.47-2.73L3.47-2.73Q4.13-2.73 4.62-3.03Q5.11-3.33 5.53-4.06L5.53-4.06Q8.19-8.19 8.19-21.07L8.19-21.07L8.19-23.84L4.17-24.26L4.17-26.01L24.40-26.01L24.40-24.26L21.14-23.84L21.14-2.07L24.61-1.72L24.61 0L13.83 0L13.83-1.72L17.43-2.10L17.47-23.84L10.36-23.84L10.36-20.69Z" transform="translate(-12.88 0), rotate(27.018659696507655 12.722500000000002 -484.05807801842036)"></path><path d="M13.41-5.39Q13.27-5.11 12.57-3.41Q11.87-1.72 10.57-0.67Q9.28 0.39 7.56 0.39L7.56 0.39Q6.65 0.39 5.76 0.23Q4.87 0.07 4.31-0.18L4.31-0.18L4.31-2.66L6.79-2.63Q8.40-2.63 9.17-3.27Q9.94-3.92 10.50-5.60L10.50-5.60L1.68-23.84L-0.21-24.26L-0.21-26.01L9.24-26.01L9.24-24.26L5.81-23.84L11.45-11.66L12.50-8.47L13.65-11.69L18.10-23.84L15.12-24.26L15.12-26.01L22.61-26.01L22.61-24.26L20.79-23.84L13.41-5.39Z" transform="translate(-11.025 0), rotate(23.84491396209976 11.200000000000001 -484.05807801842036)"></path><path d="M8.29-15.33Q8.86-15.44 10.34-15.56Q11.83-15.68 12.88-15.68L12.88-15.68Q17.29-15.68 19.55-13.72Q21.81-11.76 21.81-8.12L21.81-8.12Q21.81-4.06 19.27-1.89Q16.73 0.28 12.53 0.28L12.53 0.28L10.26 0.18Q7.04 0 6.62 0L6.62 0L1.09 0L1.09-1.72L4.59-2.07L4.59-23.84L1.12-24.26L1.12-26.01L19.99-26.01L20.34-19.43L17.96-19.43L16.87-23.91L8.29-24.19L8.29-15.33ZM8.29-1.96Q8.47-1.93 9.33-1.79Q10.19-1.65 11.76-1.65L11.76-1.65Q14.77-1.65 16.33-3.26Q17.89-4.87 17.89-7.88L17.89-7.88Q17.89-13.62 11.83-13.62L11.83-13.62Q10.82-13.62 9.78-13.55Q8.75-13.48 8.29-13.41L8.29-13.41L8.29-1.96Z" transform="translate(-11.48 0), rotate(20.85703913453859 11.445000000000002 -484.05807801842036)"></path><path d="" transform="translate(-4.1475 0), rotate(18.782255136861973 0 -484.05807801842036)"></path><path d="M10.36-20.69Q10.36-14.39 9.64-9.57Q8.93-4.76 7.49-2.28L7.49-2.28Q6.76-1.02 5.81-0.42Q4.87 0.18 3.57 0.18L3.57 0.18Q1.89 0.18 1.09 0L1.09 0L0.84-2.84Q1.65-2.73 3.47-2.73L3.47-2.73Q4.13-2.73 4.62-3.03Q5.11-3.33 5.53-4.06L5.53-4.06Q8.19-8.19 8.19-21.07L8.19-21.07L8.19-23.84L4.17-24.26L4.17-26.01L24.40-26.01L24.40-24.26L21.14-23.84L21.14-2.07L24.61-1.72L24.61 0L13.83 0L13.83-1.72L17.43-2.10L17.47-23.84L10.36-23.84L10.36-20.69Z" transform="translate(-12.88 0), rotate(16.52160023233863 12.722500000000002 -484.05807801842036)"></path><path d="M14.00-14.42Q14.35-18.10 16.00-20.79Q17.64-23.49 20.14-24.90Q22.65-26.32 25.55-26.29L25.55-26.29Q28.98-26.29 31.41-24.69Q33.85-23.10 35.11-20.25Q36.37-17.40 36.37-13.62L36.37-13.62Q36.37-9.38 34.88-6.21Q33.39-3.05 30.82-1.37Q28.25 0.32 25.06 0.32L25.06 0.32Q21.53 0.32 19.04-1.24Q16.56-2.80 15.26-5.65Q13.97-8.51 13.93-12.32L13.93-12.32L8.33-12.32L8.33-2.10L11.34-1.72L11.34 0L1.72 0L1.72-1.72L4.59-2.10L4.59-23.84L1.79-24.26L1.79-26.01L11.20-26.01L11.20-24.26L8.29-23.84L8.29-14.42L14.00-14.42ZM25.31-24.40Q21.98-24.40 19.99-21.49Q17.99-18.59 17.99-12.78L17.99-12.78Q17.99-7.70 19.90-4.66Q21.81-1.61 25.27-1.61L25.27-1.61Q28.60-1.61 30.43-4.57Q32.27-7.53 32.27-13.30L32.27-13.30Q32.27-18.38 30.45-21.39Q28.63-24.40 25.31-24.40L25.31-24.40Z" transform="translate(-18.812500000000004 0), rotate(12.313947578595805 19.04 -484.05807801842036)"></path><path d="M8.29-15.33Q8.86-15.44 10.34-15.56Q11.83-15.68 12.88-15.68L12.88-15.68Q17.29-15.68 19.55-13.72Q21.81-11.76 21.81-8.12L21.81-8.12Q21.81-4.06 19.27-1.89Q16.73 0.28 12.53 0.28L12.53 0.28L10.26 0.18Q7.04 0 6.62 0L6.62 0L1.09 0L1.09-1.72L4.59-2.07L4.59-23.84L1.12-24.26L1.12-26.01L19.99-26.01L20.34-19.43L17.96-19.43L16.87-23.91L8.29-24.19L8.29-15.33ZM8.29-1.96Q8.47-1.93 9.33-1.79Q10.19-1.65 11.76-1.65L11.76-1.65Q14.77-1.65 16.33-3.26Q17.89-4.87 17.89-7.88L17.89-7.88Q17.89-13.62 11.83-13.62L11.83-13.62Q10.82-13.62 9.78-13.55Q8.75-13.48 8.29-13.41L8.29-13.41L8.29-1.96Z" transform="translate(-11.48 0), rotate(8.292165831699702 11.445000000000002 -484.05807801842036)"></path><path d="M1.82-26.01L11.73-26.01L11.73-24.26L8.29-23.84L8.29-6.27L11.17-10.57L21.25-22.89L21.25-23.84L18.13-24.26L18.13-26.01L27.76-26.01L27.76-24.26L24.96-23.84L24.96-2.07L27.93-1.72L27.93 0L18.17 0L18.17-1.72L21.25-2.07L21.25-19.88L18.66-15.82L8.29-3.33L8.29-2.07L11.59-1.72L11.59 0L1.72 0L1.72-1.72L4.62-2.07L4.62-23.84L1.82-24.26L1.82-26.01Z" transform="translate(-14.770000000000001 0), rotate(4.807086328323532 14.822500000000002 -484.05807801842036)"></path><path d="M10.15-2.07L10.15-24.15L4.13-23.94L2.91-16.63L0.60-16.63L1.19-26.01L23.00-26.01L23.42-16.63L21.21-16.63L20.06-23.94L14.00-24.15L14.00-2.07L18.97-1.72L18.97 0L5.60 0L5.60-1.72L10.15-2.07Z" transform="translate(-12.110000000000001 0), rotate(1.238364916866331 12.005000000000003 -484.05807801842036)"></path><path d="M4.52-2.07L4.52-23.84L1.65-24.26L1.65-26.01L19.46-26.01L19.95-20.58L17.96-20.58L16.94-23.98L8.26-24.19L8.26-14.32L14.11-14.42L14.60-17.33L16.52-17.33L16.52-9.28L14.60-9.28L14.11-12.29L8.26-12.39L8.26-1.96L18.13-2.31L19.99-6.72L22.05-6.09L21.04 0L1.61 0L1.61-1.72L4.52-2.07Z" transform="translate(-11.392500000000002 0), rotate(-1.8819429318231364 11.83 -484.05807801842036)"></path><path d="M10.36-20.69Q10.36-14.39 9.64-9.57Q8.93-4.76 7.49-2.28L7.49-2.28Q6.76-1.02 5.81-0.42Q4.87 0.18 3.57 0.18L3.57 0.18Q1.89 0.18 1.09 0L1.09 0L0.84-2.84Q1.65-2.73 3.47-2.73L3.47-2.73Q4.13-2.73 4.62-3.03Q5.11-3.33 5.53-4.06L5.53-4.06Q8.19-8.19 8.19-21.07L8.19-21.07L8.19-23.84L4.17-24.26L4.17-26.01L24.40-26.01L24.40-24.26L21.14-23.84L21.14-2.07L24.61-1.72L24.61 0L13.83 0L13.83-1.72L17.43-2.10L17.47-23.84L10.36-23.84L10.36-20.69Z" transform="translate(-12.88 0), rotate(-5.1044797792782965 12.722500000000002 -484.05807801842036)"></path><path d="M4.52-2.07L4.52-23.84L1.65-24.26L1.65-26.01L19.46-26.01L19.95-20.58L17.96-20.58L16.94-23.98L8.26-24.19L8.26-14.32L14.11-14.42L14.60-17.33L16.52-17.33L16.52-9.28L14.60-9.28L14.11-12.29L8.26-12.39L8.26-1.96L18.13-2.31L19.99-6.72L22.05-6.09L21.04 0L1.61 0L1.61-1.72L4.52-2.07Z" transform="translate(-11.392500000000002 0), rotate(-8.32701662673347 11.83 -484.05807801842036)"></path><path d="M1.82-26.01L11.73-26.01L11.73-24.26L8.29-23.84L8.29-6.27L11.17-10.57L21.25-22.89L21.25-23.84L18.13-24.26L18.13-26.01L27.76-26.01L27.76-24.26L24.96-23.84L24.96-2.07L27.93-1.72L27.93 0L18.17 0L18.17-1.72L21.25-2.07L21.25-19.88L18.66-15.82L8.29-3.33L8.29-2.07L11.59-1.72L11.59 0L1.72 0L1.72-1.72L4.62-2.07L4.62-23.84L1.82-24.26L1.82-26.01ZM10.99-34.41Q11.55-34.41 11.55-33.04L11.55-33.04Q11.55-31.57 12.34-30.77Q13.13-29.96 15.09-29.96L15.09-29.96Q17.05-29.96 17.83-30.77Q18.62-31.57 18.62-33.04L18.62-33.04Q18.62-34.41 19.15-34.41L19.15-34.41L21.77-34.41L21.81-33.64Q21.81-31.01 20.07-29.66Q18.34-28.32 15.09-28.32L15.09-28.32Q11.87-28.32 10.12-29.68Q8.37-31.05 8.37-33.64L8.37-33.64L8.40-34.41L10.99-34.41Z" transform="translate(-14.770000000000001 0), rotate(-11.80047919843172 14.822500000000002 -484.05807801842036)"></path><path d="" transform="translate(-4.1475 0), rotate(-14.312059827198144 0 -484.05807801842036)"></path><path d="M27.09-2.10Q27.09-1.68 26.67 2.36Q26.25 6.41 26.18 6.51L26.18 6.51L23.94 6.51Q23.94 5.85 23.73 3.06Q23.52 0.28 23.42 0L23.42 0L1.37 0L1.37-1.72L4.62-2.14L4.62-23.84L1.68-24.26L1.68-26.01L11.73-26.01L11.73-24.26L8.29-23.84L8.29-2.00L19.32-2.00L19.32-23.84L16.63-24.26L16.63-26.01L25.90-26.01L25.90-24.26L23.03-23.84L23.03-2.10L27.09-2.10Z" transform="translate(-13.982500000000002 0), rotate(-16.71908807086329 14.227500000000001 -484.05807801842036)"></path><path d="M1.82-26.01L11.73-26.01L11.73-24.26L8.29-23.84L8.29-6.27L11.17-10.57L21.25-22.89L21.25-23.84L18.13-24.26L18.13-26.01L27.76-26.01L27.76-24.26L24.96-23.84L24.96-2.07L27.93-1.72L27.93 0L18.17 0L18.17-1.72L21.25-2.07L21.25-19.88L18.66-15.82L8.29-3.33L8.29-2.07L11.59-1.72L11.59 0L1.72 0L1.72-1.72L4.62-2.07L4.62-23.84L1.82-24.26L1.82-26.01Z" transform="translate(-14.770000000000001 0), rotate(-20.536411820227986 14.822500000000002 -484.05807801842036)"></path><path d="M4.59-2.07L4.59-23.84L1.86-24.26L1.86-26.01L6.51-26.01Q7.77-26.01 9.00-26.11L9.00-26.11Q10.89-26.25 12.57-26.25L12.57-26.25Q17.64-26.22 19.74-24.36Q21.84-22.51 21.84-18.76L21.84-18.76Q21.84-15.96 20.55-13.90Q19.25-11.83 16.96-10.75Q14.67-9.66 11.69-9.66L11.69-9.66Q10.68-9.66 9.63-9.71Q8.58-9.77 8.33-9.80L8.33-9.80L8.33-2.10L13.13-1.72L13.13 0L1.68 0L1.68-1.72L4.59-2.07ZM8.33-11.73Q9.31-11.55 11.69-11.55L11.69-11.55Q14.46-11.55 16.19-13.23Q17.92-14.91 17.92-18.73L17.92-18.73Q17.92-21.74 16.42-23.05Q14.91-24.36 11.73-24.36L11.73-24.36Q10.61-24.36 9.35-24.22L9.35-24.22Q8.58-24.15 8.33-24.15L8.33-24.15L8.33-11.73Z" transform="translate(-11.357500000000002 0), rotate(-24.005227619255063 11.760000000000002 -484.05807801842036)"></path><path d="M13.62-13.62Q15.02-13.09 16.42-11.29Q17.82-9.49 19.78-6.41L19.78-6.41Q21.11-4.24 21.84-3.24Q22.58-2.24 23.10-2.10L23.10-2.10L24.43-1.72L24.43 0L20.09 0Q19.29 0 18.29-1.38Q17.29-2.77 15.72-5.60L15.72-5.60Q13.93-8.79 12.74-10.43Q11.55-12.08 10.47-12.08L10.47-12.08L8.23-12.08L8.23-2.10L11.34-1.68L11.34 0L1.75 0L1.75-1.75L4.59-2.10L4.59-23.84L1.75-24.26L1.75-26.01L11.13-26.01L11.13-24.26L8.23-23.84L8.23-13.76L11.24-13.76L18.31-23.84L15.37-24.26L15.37-26.01L23.98-26.01L23.98-24.26L21.21-23.84L13.62-13.62Z" transform="translate(-12.32 0), rotate(-27.148769331300368 13.090000000000002 -484.05807801842036)"></path><path d="M1.72-2.07L10.15-26.22L14.00-26.22L22.51-2.07L24.68-1.72L24.68 0L15.44 0L15.44-1.72L18.34-2.07L16.70-7.25L6.48-7.25L4.83-2.07L7.84-1.72L7.84 0L-0.46 0L-0.46-1.72L1.72-2.07ZM16.03-9.31L12.36-20.62L11.48-23.70L10.64-20.55L7.11-9.31L16.03-9.31Z" transform="translate(-12.110000000000001 0), rotate(-30.392216655775794 12.110000000000001 -484.05807801842036)"></path></g></svg></g><g transform="rotate(0 0 0)"><svg data-root-id="1492114761197" xmlns="http://www.w3.org/2000/svg" y="385" viewBox="0 0 0 0" x="287.5" height="0" width="0" fontUrl="http://fonts.gstatic.com/s/baskervville/v3/YA9Ur0yU4l_XOrogbkun3kQgt5OohvbJ9A.ttf" zoom="1" editorType="buyer" data-layer-role="brandName" style="position: absolute; top: 385px; width: 0px; height: 0px; left: 287.495px;"><g data-horizontal-grow="center" zoom="1" root="[object Object]" style="fill: rgb(0, 0, 0); fill-opacity: 1;"></g></svg></g></svg>