<svg viewBox="0 0 575 575" class="roots-wrapper"><g transform="rotate(0 0 0)"><svg data-root-id="7941494661189" xmlns="http://www.w3.org/2000/svg" id="Layer_1" dataName="Layer 1" viewBox="-4.93994140625 -4.989990234375 280.18994140625 364.760009765625" height="230" width="175.17" y="133.12" x="189.44" preserveAspectRatio="xMinYMin" zoom="1" editorType="buyer" data-layer-role="icon" style="position: absolute; height: 229.999px; width: 175.17px; top: 133.121px; left: 189.44px;"><path class="cls-1" d="M631.69,594.49l3.44-4.71-3.44-4.71,2.89-5.06-3.93-4.3,2.3-5.35-4.39-3.83,1.69-5.58-4.8-3.31,1-5.74-5.14-2.74.4-5.82-5.42-2.15-.25-5.83-5.63-1.53-.9-5.76-5.76-.9-1.53-5.63-5.83-.25-2.15-5.42-5.82.4-2.75-5.14-5.73,1-3.31-4.8-5.58,1.69-3.83-4.4L561.92,507l-4.3-3.94-5.07,2.9-.67-.5V494.51a96.78,96.78,0,0,1,15.83,2l6.36-5.7a102.6,102.6,0,0,0-22.19-3.3V456.82l1.78-2.19-.89-2.77,6.65-4.62a2.92,2.92,0,1,0-3.33-4.8l-5.91,4.1-4.7-.24-7.88-2.44-.74.19,0-.07-1.81-1,.1-.35s-29.75-14.35-34.92-19.52-7.92-17.5-5.79-21.19c0,0-1.43-2.45-3.76-5.7l.11-.78.37.84.82-.46,2.31-4v-.49a2,2,0,0,0-.92.26c-.46.27-2.43-1.79-2.43-1.79l-.32,1.37a2.26,2.26,0,0,0-.11-.22,6.2,6.2,0,0,0,.43-1.15l1.47-4.24s8.33-.79,8.74-.56,1.93-1.67,1.93-1.67v-1.53l-1-1.22v-.66l.46-.8-.44-.77-.27-.67v-.45l1.27-.51v-2.39l-.56-.46,1.42-.45h.61l.36-1.58-.21-.37-3.5-4.1.41-2.08-3-6.53c3.8.37,6.3.78,6.3.78v-3.35c-2.07-.4-4.06-.71-6-1l3.72-27.61-3.23-4.93L466.87,326l-2.75,1.59,7.18,28.6A38.64,38.64,0,0,0,463,359l2.38,4.12a21.31,21.31,0,0,1,6.29-3l-.11.1v8.08l1.6,4.06s1.86,5.24,1.73,6.8l-.22,0-.7,1.74a12.81,12.81,0,0,0-1.27-.36l-2.74,5.18-4.58,5.49-6.55,14.49s5.94,59.6-28.81,88c8.63.52,18.49-7.83,18.49-7.83s-5.68,12.31-13.88,17.43c15.44,0,33.74-5.72,48.33-12.41,5.77,2.24,12.79,4.36,18.84,6a14.44,14.44,0,0,1-3.46,3.26l-.2.15a102.44,102.44,0,0,0-52.43,83c-.14,1.79-4.55,7.91-8.68,13.3a11.38,11.38,0,0,0-14.1,16l-15.26,15.25-.55-1.37-1.83.13-.87-1.62-1.81.33-1-1.52-1.77.54-1.2-1.39-1.69.73-1.36-1.24-1.6.91-1.49-1.09-1.48,1.09-1.6-.91L388,623.68l-1.69-.73-1.21,1.39-1.76-.54-1,1.52-1.81-.33-.87,1.62-1.84-.13-.68,1.71-1.83.08-.49,1.78-1.82.28-.28,1.82-1.78.49-.08,1.83-1.71.68.13,1.84-1.62.87.33,1.81-1.51,1,.53,1.76-1.39,1.21.73,1.69-1.24,1.36.91,1.6-1.08,1.48L366,651.3l-.91,1.6,1.24,1.35-.73,1.69,1.39,1.21-.54,1.76,1.52,1.05-.33,1.81,1.62.87-.13,1.83,1.71.68.08,1.84,1.78.49.28,1.81,1.82.29.49,1.77,1.83.08.68,1.72,1.84-.13.87,1.62,1.81-.33,1,1.51,1.76-.53,1.21,1.39L388,676l1.36,1.24,1.6-.91,1.48,1.08,1.49-1.08,1.6.91,1.35-1.24,1.69.73,1.21-1.39,1.76.53,1.05-1.51,1.81.33.87-1.62,1.83.13.68-1.72,1.84-.08.49-1.77,1.81-.29.29-1.81L414,667l.08-1.84,1.71-.68-.13-1.83,1.62-.87-.33-1.81,1.51-1.05-.53-1.76,1.39-1.21-.73-1.68,1.24-1.36-.91-1.6,1.08-1.49-1.08-1.48.91-1.6-1.24-1.36.73-1.69-1.39-1.21.53-1.76-1.51-1,.33-1.81-1.62-.87.13-1.84-1.71-.68-.07-1.55,15-15a11.37,11.37,0,0,0,13.68-16.6c4.6-6.7,9.76-14.77,10-17.57a95.51,95.51,0,0,1,62.26-83.51l.52.12s-7.72,6.95-9.05,9.25c-.49.86-2,3.19-3.95,6.33l-1.05-.07-2,4.94-.3.48-5.72.25-1.53,5.62-5.76.9-.9,5.76-5.63,1.54-.25,5.82-5.42,2.16.4,5.81-5.14,2.75,1.05,5.74-4.8,3.31,1.69,5.58-4.4,3.82,2.31,5.36L461.1,580l2.9,5.06-3.44,4.71,3.44,4.71-2.9,5.07,3.94,4.3-2.31,5.35,4.4,3.83-1.69,5.58,4.8,3.31-1.05,5.73,5.14,2.75-.4,5.81,5.42,2.16.25,5.82,5.62,1.54.9,5.76,5.76.9,1.54,5.62,5.82.26,2.16,5.42,5.81-.4,2.75,5.14,5.74-1.05,3.3,4.8,5.58-1.69,3.83,4.4,5.36-2.31,4.3,3.93,5.06-2.89,4.71,3.44,4.71-3.44,5.07,2.89,4.3-3.93,5.35,2.31,3.83-4.4,5.58,1.69,3.31-4.8,5.73,1.05,2.75-5.14,5.81.4,2.16-5.42,5.82-.25,1.54-5.63,5.76-.9.9-5.76,5.62-1.53.26-5.83,5.41-2.15-.39-5.82,5.14-2.75-1-5.73,4.8-3.31L628.56,613l4.39-3.83-2.3-5.35,3.93-4.3ZM399.12,634.15a6.26,6.26,0,0,1,4-1.81l-5.84,5.83A6.26,6.26,0,0,1,399.12,634.15Zm-4.9,20.3a.65.65,0,1,1,.41-.82A.64.64,0,0,1,394.22,654.45Zm-4.75-1.35a.65.65,0,0,1-.76-1.05.66.66,0,0,1,.91.14A.65.65,0,0,1,389.47,653.1Zm-1.32-5.77a.58.58,0,0,1,.1-.21.65.65,0,0,1,.34-.23ZM377.8,658.55a6.34,6.34,0,1,1,5.27-7.25A6.34,6.34,0,0,1,377.8,658.55Zm1.8-19.95a6.34,6.34,0,1,1,8.52,2.77A6.34,6.34,0,0,1,379.6,638.6Zm16.61,27.82a6.34,6.34,0,1,1-5.27-7.25A6.33,6.33,0,0,1,396.21,666.42Zm.53-16.24h0l.66-.66v0A.64.64,0,0,1,396.74,650.18Zm15.42,9.69a6.34,6.34,0,1,1-2.77-8.53A6.34,6.34,0,0,1,412.16,659.87Zm-4.07-16.75a6.31,6.31,0,0,1-6,1.66l7.63-7.63A6.32,6.32,0,0,1,408.09,643.12ZM567.93,539.69a20.09,20.09,0,0,1-16,19.68V520A20.1,20.1,0,0,1,567.93,539.69Zm-5.68,56.46a2,2,0,1,1-.9-2.76A2.05,2.05,0,0,1,562.25,596.15Zm-34.07-52.34,13.49.46,2.14-1v16.1A20.12,20.12,0,0,1,528.18,543.81Zm6.61,51a2,2,0,1,1-.64-4,2,2,0,1,1,.64,4Zm9-74.8v17.26a21,21,0,0,1-7.22.5c-2.05-.28-5.16-3-7.49-5.26A20.12,20.12,0,0,1,543.81,520Zm-.68-14.06-5.06-2.9-2.33,2.13,4.2-7.14v-3.26c1.29-.11,2.57-.2,3.87-.25v10.92Zm-6.86-61.68c-.24,1.29-1.81,8.9-4.65,11.85a5.36,5.36,0,0,1-2.17-.82c2.54-2.13,4.75-9.29,5.47-11.81Zm-23.21,5.64c2.13,0,10.67,4.27,15.4,6a1.87,1.87,0,0,0,.51-.22,5.84,5.84,0,0,0,2.77,1h.11l.08-.07a15.3,15.3,0,0,0,2.94-5.18,13.43,13.43,0,0,0,5.33,1.35,6.5,6.5,0,0,1,.95.06l-8.51,5.9a2.93,2.93,0,0,0,1.67,5.33,2.82,2.82,0,0,0,1.66-.53l7.84-5.43V487.2c-1.19-.11-2.39-.26-3.61-.45,1.94-5.78,3.49-10.26,3.2-12.1-.82-5.08-6.42-8.4-6.82-8.64s-22.92-3.38-31.22-4.55c-2.31-5.1-5.35-11.4-8-18.17C504,446.4,511.87,449.9,513.06,449.9ZM475,379.8c1.67.46,12.15,3.69,15.72,12.74l-.44,3c-3.83-5.25-9.79-12.2-15.8-14.47Zm6.13,188.29a20,20,0,0,1,3.43-6.32l1.25,3.44,2.85,2.84s6.91,9.55,11.28,10.88,3.13.6,3.13.6l1.34-1.42v-4.37l-4-4.47s-2.65-6.62-1.83-9.91a23,23,0,0,0,.46-5.1,20.08,20.08,0,1,1-18,13.83Zm53.56,74a20.09,20.09,0,1,1-4.45-28.06A20.09,20.09,0,0,1,534.65,642.12Zm4.38-63.2a2,2,0,1,1,2.76.89A2,2,0,0,1,539,578.92Zm9.55,24.83a2,2,0,1,1-1.7-2.34A2,2,0,0,1,548.58,603.75Zm-.74-7.71a6.26,6.26,0,1,1,6.26-6.26A6.26,6.26,0,0,1,547.84,596Zm7.61-15.1a2,2,0,1,1,2.9,0A2,2,0,0,1,555.45,580.94Zm33.65,65.63a20.09,20.09,0,1,1,4.44-28.07A20.09,20.09,0,0,1,589.1,646.57Zm12.6-53.16a20.09,20.09,0,1,1,12.89-25.32A20.09,20.09,0,0,1,601.7,593.41Z" transform="translate(-364.88 -322.64)" name="Layer 1" zoom="1" data-layer-id="2284950261195" style="fill: rgb(32, 44, 57); fill-opacity: 1;"></path></svg></g><g transform="rotate(0 0 0)"><svg data-root-id="0704713261204" xmlns="http://www.w3.org/2000/svg" y="334" viewBox="-272.77899169921875 -113.0913314819336 554.0549926757812 113.57896423339844" x="9.83" height="113.58" width="554.05" fontUrl="http://fonts.gstatic.com/s/opensans/v18/mem8YaGs126MiZpBA-U1UpcaXcl0Aw.ttf" zoom="1" editorType="buyer" data-layer-role="slogan" style="position: absolute; top: 334px; width: 554.05px; height: 113.58px; left: 9.83px;"><g data-horizontal-grow="center" zoom="1" root="[object Object]" style="fill: rgb(32, 44, 57); fill-opacity: 1;"><path d="M48.79-10.48Q49.40-10.48 49.75-9.92Q50.10-9.35 50.10-8.37L50.10-8.37Q50.10-6.53 49.21-5.45L49.21-5.45Q46.95-2.73 44.65-1.25Q42.35 0.23 39.20 0.23L39.20 0.23Q35.72 0.23 33.51-1.81Q31.30-3.85 29.38-8.18L29.38-8.18Q27.96-11.28 27.05-12.81Q26.13-14.34 25.24-14.97Q24.35-15.60 22.98-15.74L22.98-15.74L22.47-12.27Q21.48-5.55 18.64-2.58Q15.79 0.38 10.81 0.38L10.81 0.38Q7.57 0.38 5.05-1.20Q2.54-2.77 1.55-5.22L1.55-5.22Q1.22-6.06 1.22-7.05L1.22-7.05Q1.22-8.46 1.88-9.49Q2.54-10.53 3.57-10.53L3.57-10.53Q4.18-10.53 4.61-10.22Q5.03-9.92 5.41-9.16L5.41-9.16Q6.86-6.44 7.97-5.36Q9.07-4.28 10.72-4.28L10.72-4.28Q12.60-4.28 13.94-5.99Q15.28-7.71 15.84-11.28L15.84-11.28L16.50-15.74L15.74-15.74Q14.66-15.74 14.05-16.36Q13.44-16.97 13.44-18.05L13.44-18.05Q13.44-19.27 14.08-20.00Q14.71-20.73 15.65-20.73L15.65-20.73L17.20-20.73Q17.53-23.03 17.67-23.92L17.67-23.92L19.13-34.50Q17.91-34.64 16.83-34.64L16.83-34.64Q12.83-34.64 10.76-33.25Q8.70-31.87 8.70-29.28L8.70-29.28Q8.70-28.11 8.95-27.38Q9.21-26.65 9.63-25.76L9.63-25.76Q9.82-25.38 9.82-24.91L9.82-24.91Q9.82-23.88 8.86-23.10Q7.90-22.32 6.72-22.32L6.72-22.32Q5.22-22.32 4.51-23.64L4.51-23.64Q3.10-26.13 3.10-29.00L3.10-29.00Q3.10-31.96 4.72-34.40Q6.34-36.85 9.63-38.33Q12.93-39.81 17.77-39.81L17.77-39.81Q19.88-39.81 21.64-39.57Q23.41-39.34 25.52-38.68L25.52-38.68Q27.82-37.98 27.82-36.05L27.82-36.05Q27.82-33.46 25.61-33.46L25.61-33.46L23.78-20.82Q29.28-21.39 32.74-25.54Q36.19-29.70 38.49-36.85L38.49-36.85Q38.92-38.16 39.93-38.87Q40.94-39.57 42.49-39.57L42.49-39.57Q43.80-39.57 44.53-38.99Q45.26-38.40 45.26-37.32L45.26-37.32Q45.26-36.99 45.07-36.24L45.07-36.24Q42.72-28.48 38.35-23.92Q33.98-19.36 28.81-17.86L28.81-17.86Q30.60-17.44 31.75-16.59Q32.90-15.74 33.70-14.50Q34.50-13.25 35.53-11.04L35.53-11.04Q36.99-7.94 38.26-6.65Q39.53-5.36 41.22-5.36L41.22-5.36Q42.72-5.36 44.09-6.37Q45.45-7.38 47.52-9.82L47.52-9.82Q48.08-10.48 48.79-10.48L48.79-10.48Z" transform="translate(-22.0195 0), rotate(29.207933699599597 25.662 -522.3604793902591)"></path><path d="M29.99-10.48Q30.60-10.48 30.95-9.92Q31.30-9.35 31.30-8.37L31.30-8.37Q31.30-6.49 30.41-5.45L30.41-5.45Q28.86-3.62 27.71-2.51Q26.55-1.41 24.89-0.59Q23.22 0.23 21.10 0.23L21.10 0.23Q18.33 0.23 17.16-1.95Q15.98-4.14 15.98-8.55L15.98-8.55Q15.98-10.76 16.17-12.83L16.17-12.83L16.07-12.83Q14.19-6.58 11.44-3.20Q8.70 0.19 5.17 0.19L5.17 0.19Q2.77 0.19 1.41-1.55Q0.05-3.29 0.05-5.92L0.05-5.92Q0.05-8.27 1.13-9.73Q2.21-11.19 4.18-11.19L4.18-11.19Q5.08-11.19 5.52-10.81Q5.97-10.43 5.88-9.78L5.88-9.78Q5.50-7.52 5.50-6.67L5.50-6.67Q5.50-4.98 6.34-4.98L6.34-4.98Q6.82-4.98 7.40-5.69Q7.99-6.39 9.40-9.12L9.40-9.12Q10.48-11.19 11.63-13.77Q12.78-16.36 13.54-18.38L13.54-18.38Q14.29-20.35 15.28-21.08Q16.26-21.81 18.09-21.81L18.09-21.81Q19.88-21.81 20.73-21.10Q21.57-20.40 21.57-18.80L21.57-18.80L21.48-15.32Q21.29-11.37 21.29-9.63L21.29-9.63Q21.29-4.70 23.31-4.70L23.31-4.70Q24.16-4.70 24.98-5.50Q25.80-6.30 27.54-8.41L27.54-8.41L28.72-9.82Q29.28-10.48 29.99-10.48L29.99-10.48Z" transform="translate(-12.9015 0), rotate(24.77996089021325 15.6745 -522.3604793902591)"></path><path d="M26.32-10.39Q26.93-10.39 27.28-9.80Q27.64-9.21 27.64-8.32L27.64-8.32Q27.64-7.24 27.31-6.63Q26.98-6.02 26.27-5.55L26.27-5.55L17.25 0.52Q15.46 10.25 12.57 15.82Q9.68 21.39 5.22 21.39L5.22 21.39Q2.82 21.39 1.32 19.90Q-0.19 18.42-0.19 16.03L-0.19 16.03Q-0.19 13.82 0.82 11.52Q1.83 9.21 4.58 6.23Q7.33 3.24 12.36-0.61L12.36-0.61L12.50-1.69Q12.83-3.43 13.25-6.67L13.25-6.67Q12.31-3.29 10.62-1.53Q8.93 0.23 7.05 0.23L7.05 0.23Q4.93 0.23 3.60-1.72Q2.26-3.67 2.26-6.58L2.26-6.58Q2.26-10.11 2.73-13.04Q3.20-15.98 4.28-19.27L4.28-19.27Q4.75-20.68 5.59-21.29Q6.44-21.90 8.27-21.90L8.27-21.90Q9.31-21.90 9.71-21.57Q10.11-21.24 10.11-20.59L10.11-20.59Q10.11-20.21 9.59-18.05L9.59-18.05Q9.12-16.31 8.84-14.90L8.84-14.90Q8.46-12.97 8.18-11.21Q7.90-9.45 7.90-8.32L7.90-8.32Q7.90-6.53 8.88-6.53L8.88-6.53Q9.59-6.53 10.65-7.94Q11.70-9.35 12.90-12.22Q14.10-15.09 15.23-19.27L15.23-19.27Q15.60-20.68 16.38-21.29Q17.16-21.90 18.71-21.90L18.71-21.90Q19.79-21.90 20.21-21.62Q20.63-21.34 20.63-20.68L20.63-20.68Q20.63-19.50 19.41-12.60L19.41-12.60L18.19-5.03Q21.81-7.75 25.24-10.01L25.24-10.01Q25.85-10.39 26.32-10.39L26.32-10.39ZM5.73 16.83Q6.91 16.83 8.37 14.10Q9.82 11.37 11.28 5.03L11.28 5.03Q7.66 8.08 6.04 10.60Q4.42 13.11 4.42 14.99L4.42 14.99Q4.42 15.79 4.72 16.31Q5.03 16.83 5.73 16.83L5.73 16.83Z" transform="translate(-11.021500000000001 0), rotate(21.746531334388685 13.723999999999998 -522.3604793902591)"></path><path d="M27.26-14.43Q27.87-14.43 28.20-13.82Q28.53-13.21 28.53-12.27L28.53-12.27Q28.53-11.09 28.20-10.46Q27.87-9.82 27.17-9.59L27.17-9.59Q23.78-8.41 20.02-8.41L20.02-8.41Q18.80-4.23 16.19-2.02Q13.58 0.19 10.01 0.19L10.01 0.19Q6.16 0.19 4.00-2.09Q1.83-4.37 1.83-9.07L1.83-9.07Q1.83-12.60 3.13-15.39Q4.42-18.19 6.63-19.76Q8.84-21.34 11.52-21.34L11.52-21.34Q12.93-21.34 13.96-20.82L13.96-20.82Q13.30-21.90 12.48-22.89Q11.66-23.88 10.34-25.33L10.34-25.33Q8.65-27.21 7.71-28.39Q6.77-29.56 6.11-31.00Q5.45-32.43 5.45-33.98L5.45-33.98Q5.45-36.14 6.67-37.44Q7.90-38.73 9.68-39.39Q11.47-40.04 14.48-40.75L14.48-40.75Q15.98-41.13 17.53-41.57Q19.08-42.02 20.12-42.53L20.12-42.53Q20.40-42.68 20.68-42.68L20.68-42.68Q21.34-42.68 21.74-41.83Q22.14-40.98 22.14-39.86L22.14-39.86Q22.14-39.06 21.90-38.42Q21.67-37.79 21.24-37.51L21.24-37.51Q20.02-36.71 18.59-36.35Q17.16-36.00 15.13-35.72L15.13-35.72Q12.93-35.39 11.91-34.99Q10.90-34.59 10.90-33.46L10.90-33.46Q10.90-32.71 11.63-31.75Q12.36-30.79 13.91-29.09L13.91-29.09Q15.98-26.84 17.39-25.03Q18.80-23.22 19.86-20.80Q20.91-18.38 20.91-15.65L20.91-15.65Q20.91-14.85 20.82-13.35L20.82-13.35Q23.41-13.49 26.60-14.34L26.60-14.34Q26.88-14.43 27.26-14.43L27.26-14.43ZM10.01-4.75Q11.47-4.75 12.71-6.37Q13.96-7.99 14.71-10.57L14.71-10.57Q13.82-11.56 13.37-12.83Q12.93-14.10 12.93-15.46L12.93-15.46Q12.93-15.89 13.02-16.73L13.02-16.73L12.13-16.78Q10.95-16.78 9.94-15.79Q8.93-14.80 8.32-13.04Q7.71-11.28 7.71-9.07L7.71-9.07Q7.71-7.00 8.25-5.88Q8.79-4.75 10.01-4.75L10.01-4.75Z" transform="translate(-11.1155 0), rotate(18.93956606760407 15.181000000000001 -522.3604793902591)"></path><path d="" transform="translate(-6.2275 0), rotate(16.740478629295097 0 -522.3604793902591)"></path><path d="M45.21-10.48Q45.83-10.48 46.18-9.92Q46.53-9.35 46.53-8.37L46.53-8.37Q46.53-6.53 45.64-5.45L45.64-5.45Q43.19-2.44 40.98-1.10Q38.77 0.23 36.24 0.23L36.24 0.23Q31.25 0.23 28.95-4.46Q26.65-9.16 26.65-17.20L26.65-17.20Q26.65-20.91 27.07-24.91L27.07-24.91Q24.86-17.01 22.51-11.56Q20.16-6.11 16.92-2.87Q13.68 0.38 9.40 0.38L9.40 0.38Q6.39 0.38 4.14-1.13Q1.88-2.63 0.80-5.22L0.80-5.22Q0.38-6.30 0.38-7.24L0.38-7.24Q0.38-8.65 1.15-9.61Q1.93-10.57 3.15-10.57L3.15-10.57Q4.14-10.57 4.75-10.11Q5.36-9.63 5.64-8.60L5.64-8.60Q6.20-6.58 7.14-5.66Q8.08-4.75 9.49-4.75L9.49-4.75Q11.19-4.75 13.54-7.73Q15.89-10.72 18.38-16.26L18.38-16.26Q21.29-22.75 25.29-36.05L25.29-36.05Q25.90-38.02 27.14-38.94Q28.39-39.86 30.32-39.86L30.32-39.86Q32.24-39.86 32.99-38.99Q33.75-38.12 33.60-36.14L33.60-36.14Q32.90-26.55 32.90-20.73L32.90-20.73Q32.90-13.58 33.96-9.47Q35.02-5.36 37.60-5.36L37.60-5.36Q39.10-5.36 40.44-6.32Q41.78-7.29 43.95-9.82L43.95-9.82Q44.46-10.48 45.21-10.48L45.21-10.48Z" transform="translate(-20.2335 0), rotate(13.385231399571662 23.453000000000003 -522.3604793902591)"></path><path d="M36.80-14.43Q37.41-14.43 37.74-13.82Q38.07-13.21 38.07-12.27L38.07-12.27Q38.07-10.01 36.71-9.59L36.71-9.59Q33.89-8.60 30.50-8.46L30.50-8.46Q29.61-4.51 26.98-2.14Q24.35 0.23 21.01 0.23L21.01 0.23Q18.33 0.23 16.38-1.01Q14.43-2.26 13.37-4.30Q12.31-6.34 12.17-8.84L12.17-8.84L7.90-8.84L7.85-7.10L7.85-6.11Q7.80-3.20 7.71-2.02Q7.61-0.85 7.14-0.31Q6.67 0.23 5.59 0.23L5.59 0.23Q3.81 0.23 3.08-1.65Q2.35-3.52 2.35-7.66L2.35-7.66Q2.35-13.77 4.09-19.27L4.09-19.27Q4.51-20.63 5.48-21.27Q6.44-21.90 8.18-21.90L8.18-21.90Q9.12-21.90 9.49-21.67Q9.87-21.43 9.87-20.77L9.87-20.77Q9.87-20.02 9.16-17.39L9.16-17.39Q8.79-15.84 8.46-13.63L8.46-13.63L12.64-13.63Q13.63-17.44 16.31-19.69Q18.99-21.95 22.56-21.95L22.56-21.95Q26.13-21.95 28.32-19.48Q30.50-17.01 30.88-13.39L30.88-13.39Q33.09-13.54 36.14-14.34L36.14-14.34Q36.52-14.43 36.80-14.43L36.80-14.43ZM21.39-4.75Q22.89-4.75 23.99-5.97Q25.10-7.19 25.47-9.49L25.47-9.49Q24.02-10.48 23.24-12.08Q22.47-13.68 22.47-15.46L22.47-15.46Q22.47-16.21 22.61-16.97L22.61-16.97L22.37-16.97Q20.49-16.97 19.25-15.16Q18.00-13.35 18.00-10.06L18.00-10.06Q18.00-7.47 19.01-6.11Q20.02-4.75 21.39-4.75L21.39-4.75Z" transform="translate(-15.886 0), rotate(8.805289133066402 20.21 -522.3604793902591)"></path><path d="M27.26-14.43Q27.87-14.43 28.20-13.82Q28.53-13.21 28.53-12.27L28.53-12.27Q28.53-11.09 28.20-10.46Q27.87-9.82 27.17-9.59L27.17-9.59Q23.78-8.41 20.02-8.41L20.02-8.41Q18.80-4.23 16.19-2.02Q13.58 0.19 10.01 0.19L10.01 0.19Q6.16 0.19 4.00-2.09Q1.83-4.37 1.83-9.07L1.83-9.07Q1.83-12.60 3.13-15.39Q4.42-18.19 6.63-19.76Q8.84-21.34 11.52-21.34L11.52-21.34Q12.93-21.34 13.96-20.82L13.96-20.82Q13.30-21.90 12.48-22.89Q11.66-23.88 10.34-25.33L10.34-25.33Q8.65-27.21 7.71-28.39Q6.77-29.56 6.11-31.00Q5.45-32.43 5.45-33.98L5.45-33.98Q5.45-36.14 6.67-37.44Q7.90-38.73 9.68-39.39Q11.47-40.04 14.48-40.75L14.48-40.75Q15.98-41.13 17.53-41.57Q19.08-42.02 20.12-42.53L20.12-42.53Q20.40-42.68 20.68-42.68L20.68-42.68Q21.34-42.68 21.74-41.83Q22.14-40.98 22.14-39.86L22.14-39.86Q22.14-39.06 21.90-38.42Q21.67-37.79 21.24-37.51L21.24-37.51Q20.02-36.71 18.59-36.35Q17.16-36.00 15.13-35.72L15.13-35.72Q12.93-35.39 11.91-34.99Q10.90-34.59 10.90-33.46L10.90-33.46Q10.90-32.71 11.63-31.75Q12.36-30.79 13.91-29.09L13.91-29.09Q15.98-26.84 17.39-25.03Q18.80-23.22 19.86-20.80Q20.91-18.38 20.91-15.65L20.91-15.65Q20.91-14.85 20.82-13.35L20.82-13.35Q23.41-13.49 26.60-14.34L26.60-14.34Q26.88-14.43 27.26-14.43L27.26-14.43ZM10.01-4.75Q11.47-4.75 12.71-6.37Q13.96-7.99 14.71-10.57L14.71-10.57Q13.82-11.56 13.37-12.83Q12.93-14.10 12.93-15.46L12.93-15.46Q12.93-15.89 13.02-16.73L13.02-16.73L12.13-16.78Q10.95-16.78 9.94-15.79Q8.93-14.80 8.32-13.04Q7.71-11.28 7.71-9.07L7.71-9.07Q7.71-7.00 8.25-5.88Q8.79-4.75 10.01-4.75L10.01-4.75Z" transform="translate(-11.1155 0), rotate(5.38150665797561 15.181000000000001 -522.3604793902591)"></path><path d="M7.05 0.23Q4.93 0.23 3.60-1.72Q2.26-3.67 2.26-6.58L2.26-6.58Q2.26-10.11 2.73-13.04Q3.20-15.98 4.28-19.27L4.28-19.27Q4.75-20.68 5.59-21.29Q6.44-21.90 8.27-21.90L8.27-21.90Q9.31-21.90 9.71-21.57Q10.11-21.24 10.11-20.59L10.11-20.59Q10.11-20.21 9.59-18.05L9.59-18.05Q9.12-16.31 8.84-14.90L8.84-14.90Q7.90-9.96 7.90-8.32L7.90-8.32Q7.90-7.33 8.13-6.93Q8.37-6.53 8.88-6.53L8.88-6.53Q9.59-6.53 10.65-7.94Q11.70-9.35 12.90-12.22Q14.10-15.09 15.23-19.27L15.23-19.27Q15.60-20.68 16.38-21.29Q17.16-21.90 18.71-21.90L18.71-21.90Q19.79-21.90 20.21-21.64Q20.63-21.39 20.63-20.68L20.63-20.68Q20.63-19.50 19.46-14.24L19.46-14.24Q18.14-8.22 18.14-6.82L18.14-6.82Q18.14-5.92 18.52-5.43Q18.89-4.93 19.50-4.93L19.50-4.93Q20.45-4.93 21.74-6.09Q23.03-7.24 25.19-9.82L25.19-9.82Q25.76-10.48 26.46-10.48L26.46-10.48Q27.07-10.48 27.42-9.92Q27.78-9.35 27.78-8.37L27.78-8.37Q27.78-6.49 26.88-5.45L26.88-5.45Q24.86-2.96 22.54-1.36Q20.21 0.23 17.25 0.23L17.25 0.23Q14.99 0.23 13.94-1.50Q12.88-3.24 12.88-6.39L12.88-6.39Q12.08-3.20 10.48-1.48Q8.88 0.23 7.05 0.23L7.05 0.23Z" transform="translate(-10.857 0), rotate(2.595399944128882 15.0165 -522.3604793902591)"></path><path d="M5.59 0.23Q3.81 0.23 3.08-1.65Q2.35-3.52 2.35-7.66L2.35-7.66Q2.35-13.77 4.09-19.27L4.09-19.27Q4.51-20.63 5.48-21.27Q6.44-21.90 8.18-21.90L8.18-21.90Q9.12-21.90 9.49-21.67Q9.87-21.43 9.87-20.77L9.87-20.77Q9.87-20.02 9.16-17.39L9.16-17.39Q8.70-15.51 8.41-14.12Q8.13-12.74 7.94-10.67L7.94-10.67Q9.21-14.34 10.97-16.87Q12.74-19.41 14.59-20.66Q16.45-21.90 18.09-21.90L18.09-21.90Q19.74-21.90 20.42-21.15Q21.10-20.40 21.10-18.85L21.10-18.85Q21.10-17.34 20.21-13.39L20.21-13.39Q19.83-11.70 19.69-10.86L19.69-10.86Q22.04-16.64 24.91-19.27Q27.78-21.90 30.27-21.90L30.27-21.90Q33.32-21.90 33.32-18.85L33.32-18.85Q33.32-17.01 32.29-12.22L32.29-12.22Q31.40-8.13 31.40-6.82L31.40-6.82Q31.40-4.93 32.76-4.93L32.76-4.93Q33.70-4.93 34.99-6.09Q36.28-7.24 38.45-9.82L38.45-9.82Q39.01-10.48 39.72-10.48L39.72-10.48Q40.33-10.48 40.68-9.92Q41.03-9.35 41.03-8.37L41.03-8.37Q41.03-6.49 40.14-5.45L40.14-5.45Q38.12-2.96 35.79-1.36Q33.46 0.23 30.50 0.23L30.50 0.23Q28.11 0.23 26.88-1.15Q25.66-2.54 25.66-5.17L25.66-5.17Q25.66-6.49 26.32-9.87L26.32-9.87Q26.93-12.83 26.93-13.96L26.93-13.96Q26.93-14.71 26.41-14.71L26.41-14.71Q25.80-14.71 24.68-13.14Q23.55-11.56 22.42-8.98Q21.29-6.39 20.59-3.52L20.59-3.52Q20.07-1.27 19.39-0.52Q18.71 0.23 17.20 0.23L17.20 0.23Q15.65 0.23 14.88-1.25Q14.10-2.73 14.10-4.84L14.10-4.84Q14.10-6.63 14.57-10.01L14.57-10.01Q14.95-13.02 14.95-13.96L14.95-13.96Q14.95-14.71 14.43-14.71L14.43-14.71Q13.72-14.71 12.64-13.02Q11.56-11.33 10.55-8.70Q9.54-6.06 8.93-3.52L8.93-3.52Q8.41-1.32 7.73-0.54Q7.05 0.23 5.59 0.23L5.59 0.23Z" transform="translate(-17.484 0), rotate(-0.9982307477418644 21.6905 -522.3604793902591)"></path><path d="M23.22-10.48Q23.83-10.48 24.18-9.92Q24.53-9.35 24.53-8.37L24.53-8.37Q24.53-6.49 23.64-5.45L23.64-5.45Q21.90-3.34 18.73-1.55Q15.56 0.23 11.94 0.23L11.94 0.23Q7.00 0.23 4.28-2.44Q1.55-5.12 1.55-9.78L1.55-9.78Q1.55-13.02 2.91-15.82Q4.28-18.61 6.70-20.26Q9.12-21.90 12.17-21.90L12.17-21.90Q14.90-21.90 16.54-20.28Q18.19-18.66 18.19-15.89L18.19-15.89Q18.19-12.64 15.86-10.32Q13.54-7.99 7.99-6.63L7.99-6.63Q9.16-4.46 12.46-4.46L12.46-4.46Q14.57-4.46 17.27-5.95Q19.98-7.43 21.95-9.82L21.95-9.82Q22.51-10.48 23.22-10.48L23.22-10.48ZM11.37-17.30Q9.63-17.30 8.44-15.28Q7.24-13.25 7.24-10.39L7.24-10.39L7.24-10.29Q10.01-10.95 11.61-12.27Q13.21-13.58 13.21-15.32L13.21-15.32Q13.21-16.21 12.71-16.76Q12.22-17.30 11.37-17.30L11.37-17.30Z" transform="translate(-9.2355 0), rotate(-4.386255703510557 13.0425 -522.3604793902591)"></path><path d="M29.99-10.48Q30.60-10.48 30.95-9.92Q31.30-9.35 31.30-8.37L31.30-8.37Q31.30-6.49 30.41-5.45L30.41-5.45Q28.86-3.62 27.71-2.51Q26.55-1.41 24.89-0.59Q23.22 0.23 21.10 0.23L21.10 0.23Q18.33 0.23 17.16-1.95Q15.98-4.14 15.98-8.55L15.98-8.55Q15.98-10.76 16.17-12.83L16.17-12.83L16.07-12.83Q14.19-6.58 11.44-3.20Q8.70 0.19 5.17 0.19L5.17 0.19Q2.77 0.19 1.41-1.55Q0.05-3.29 0.05-5.92L0.05-5.92Q0.05-8.27 1.13-9.73Q2.21-11.19 4.18-11.19L4.18-11.19Q5.08-11.19 5.52-10.81Q5.97-10.43 5.88-9.78L5.88-9.78Q5.50-7.52 5.50-6.67L5.50-6.67Q5.50-4.98 6.34-4.98L6.34-4.98Q6.82-4.98 7.40-5.69Q7.99-6.39 9.40-9.12L9.40-9.12Q10.48-11.19 11.63-13.77Q12.78-16.36 13.54-18.38L13.54-18.38Q14.29-20.35 15.28-21.08Q16.26-21.81 18.09-21.81L18.09-21.81Q19.88-21.81 20.73-21.10Q21.57-20.40 21.57-18.80L21.57-18.80L21.48-15.32Q21.29-11.37 21.29-9.63L21.29-9.63Q21.29-4.70 23.31-4.70L23.31-4.70Q24.16-4.70 24.98-5.50Q25.80-6.30 27.54-8.41L27.54-8.41L28.72-9.82Q29.28-10.48 29.99-10.48L29.99-10.48Z" transform="translate(-12.9015 0), rotate(-7.1932209702951795 15.6745 -522.3604793902591)"></path><path d="M23.22-10.48Q23.83-10.48 24.18-9.92Q24.53-9.35 24.53-8.37L24.53-8.37Q24.53-6.49 23.64-5.45L23.64-5.45Q21.90-3.34 18.73-1.55Q15.56 0.23 11.94 0.23L11.94 0.23Q7.00 0.23 4.28-2.44Q1.55-5.12 1.55-9.78L1.55-9.78Q1.55-13.02 2.91-15.82Q4.28-18.61 6.70-20.26Q9.12-21.90 12.17-21.90L12.17-21.90Q14.90-21.90 16.54-20.28Q18.19-18.66 18.19-15.89L18.19-15.89Q18.19-12.64 15.86-10.32Q13.54-7.99 7.99-6.63L7.99-6.63Q9.16-4.46 12.46-4.46L12.46-4.46Q14.57-4.46 17.27-5.95Q19.98-7.43 21.95-9.82L21.95-9.82Q22.51-10.48 23.22-10.48L23.22-10.48ZM11.37-17.30Q9.63-17.30 8.44-15.28Q7.24-13.25 7.24-10.39L7.24-10.39L7.24-10.29Q10.01-10.95 11.61-12.27Q13.21-13.58 13.21-15.32L13.21-15.32Q13.21-16.21 12.71-16.76Q12.22-17.30 11.37-17.30L11.37-17.30Z" transform="translate(-9.2355 0), rotate(-10.000186237079795 13.0425 -522.3604793902591)"></path><path d="M7.05 0.23Q4.93 0.23 3.60-1.72Q2.26-3.67 2.26-6.58L2.26-6.58Q2.26-10.11 2.73-13.04Q3.20-15.98 4.28-19.27L4.28-19.27Q4.75-20.68 5.59-21.29Q6.44-21.90 8.27-21.90L8.27-21.90Q9.31-21.90 9.71-21.57Q10.11-21.24 10.11-20.59L10.11-20.59Q10.11-20.21 9.59-18.05L9.59-18.05Q9.12-16.31 8.84-14.90L8.84-14.90Q7.90-9.96 7.90-8.32L7.90-8.32Q7.90-7.33 8.13-6.93Q8.37-6.53 8.88-6.53L8.88-6.53Q9.59-6.53 10.65-7.94Q11.70-9.35 12.90-12.22Q14.10-15.09 15.23-19.27L15.23-19.27Q15.60-20.68 16.38-21.29Q17.16-21.90 18.71-21.90L18.71-21.90Q19.79-21.90 20.21-21.64Q20.63-21.39 20.63-20.68L20.63-20.68Q20.63-19.50 19.46-14.24L19.46-14.24Q18.14-8.22 18.14-6.82L18.14-6.82Q18.14-5.92 18.52-5.43Q18.89-4.93 19.50-4.93L19.50-4.93Q20.45-4.93 21.74-6.09Q23.03-7.24 25.19-9.82L25.19-9.82Q25.76-10.48 26.46-10.48L26.46-10.48Q27.07-10.48 27.42-9.92Q27.78-9.35 27.78-8.37L27.78-8.37Q27.78-6.49 26.88-5.45L26.88-5.45Q24.86-2.96 22.54-1.36Q20.21 0.23 17.25 0.23L17.25 0.23Q14.99 0.23 13.94-1.50Q12.88-3.24 12.88-6.39L12.88-6.39Q12.08-3.20 10.48-1.48Q8.88 0.23 7.05 0.23L7.05 0.23ZM12.13-25.00Q9.96-25.00 8.32-25.90Q6.67-26.79 5.78-28.25Q4.89-29.70 4.89-31.35L4.89-31.35Q4.89-32.52 5.64-33.25Q6.39-33.98 7.57-33.98L7.57-33.98Q8.79-33.98 9.35-33.42Q9.92-32.85 10.25-31.49L10.25-31.49Q10.72-29.52 12.83-29.52L12.83-29.52Q15.04-29.52 16.64-30.76Q18.24-32.01 18.94-33.79L18.94-33.79Q19.32-34.73 19.79-35.13Q20.26-35.53 21.01-35.53L21.01-35.53Q21.71-35.53 22.21-34.99Q22.70-34.45 22.70-33.65L22.70-33.65L22.61-33.09Q22.14-31.16 20.87-29.33Q19.60-27.50 17.39-26.25Q15.18-25.00 12.13-25.00L12.13-25.00Z" transform="translate(-10.857 0), rotate(-12.547909488779212 15.0165 -522.3604793902591)"></path><path d="" transform="translate(-6.2275 0), rotate(-14.71421920104293 0 -522.3604793902591)"></path><path d="M46.34-8.27Q46.95-8.27 47.31-7.71Q47.66-7.14 47.66-6.20L47.66-6.20Q47.66-5.17 47.35-4.56Q47.05-3.95 46.30-3.43L46.30-3.43Q43.33-1.41 39.90 0.42L39.90 0.42Q38.87 8.41 36.35 12.17Q33.84 15.93 29.23 15.93L29.23 15.93Q26.13 15.93 24.42 14.48Q22.70 13.02 22.70 10.48L22.70 10.48Q22.70 7.94 23.99 6.09Q25.29 4.23 27.64 2.63Q29.99 1.03 35.06-1.83L35.06-1.83L35.11-2.40Q29.14-2.40 29.14-6.96L29.14-6.96Q29.14-9.07 29.84-13.91L29.84-13.91Q27.50-7.00 23.90-3.38Q20.30 0.23 15.60 0.23L15.60 0.23Q11.66 0.23 9.63-1.95Q7.61-4.14 7.61-7.80L7.61-7.80Q7.61-9.87 8.22-12.83L8.22-12.83L11.14-26.27Q11.23-26.65 11.59-28.34Q11.94-30.03 11.94-32.01L11.94-32.01Q11.94-33.13 11.49-33.70Q11.04-34.26 10.29-34.26L10.29-34.26Q8.88-34.26 7.00-32.92Q5.12-31.58 3.06-28.81L3.06-28.81Q2.40-27.92 1.60-27.92L1.60-27.92Q0.94-27.92 0.45-28.55Q-0.05-29.19-0.05-29.99L-0.05-29.99Q-0.05-31.44 1.27-33.28L1.27-33.28Q6.06-39.86 12.50-39.86L12.50-39.86Q15.37-39.86 16.99-38.12Q18.61-36.38 18.61-32.99L18.61-32.99Q18.61-30.60 18.28-28.58Q17.95-26.55 17.16-23.08L17.16-23.08L15.23-14.48Q15.13-14.05 14.90-12.97Q14.66-11.89 14.52-10.93Q14.38-9.96 14.38-9.02L14.38-9.02Q14.38-7.52 15.23-6.63Q16.07-5.73 17.63-5.73L17.63-5.73Q20.45-5.73 23.34-8.74Q26.23-11.75 28.69-18.45Q31.16-25.14 32.52-35.58L32.52-35.58Q32.85-37.98 33.49-38.92Q34.12-39.86 35.95-39.86L35.95-39.86Q37.60-39.86 38.40-38.87Q39.20-37.88 39.20-35.67L39.20-35.67Q39.20-34.50 38.85-32.08Q38.49-29.66 38.02-26.88L38.02-26.88Q36.57-18.66 35.95-13.35L35.95-13.35L35.81-12.03Q35.58-10.25 35.58-9.45L35.58-9.45Q35.58-8.18 36.19-7.75Q36.80-7.33 38.54-7.38L38.54-7.38Q38.68-7.43 39.06-7.43L39.06-7.43Q40.56-7.43 40.42-4.98L40.42-4.98Q43.24-6.63 45.26-7.90L45.26-7.90Q45.87-8.27 46.34-8.27L46.34-8.27ZM29.89 10.90Q31.25 10.90 32.34 9.16Q33.42 7.43 34.22 3.52L34.22 3.52Q31.44 5.08 30.06 6.46Q28.67 7.85 28.67 9.59L28.67 9.59Q28.67 10.20 29.00 10.55Q29.33 10.90 29.89 10.90L29.89 10.90Z" transform="translate(-20.915 0), rotate(-18.15588043579477 23.8055 -522.3604793902591)"></path><path d="M7.05 0.23Q4.93 0.23 3.60-1.72Q2.26-3.67 2.26-6.58L2.26-6.58Q2.26-10.11 2.73-13.04Q3.20-15.98 4.28-19.27L4.28-19.27Q4.75-20.68 5.59-21.29Q6.44-21.90 8.27-21.90L8.27-21.90Q9.31-21.90 9.71-21.57Q10.11-21.24 10.11-20.59L10.11-20.59Q10.11-20.21 9.59-18.05L9.59-18.05Q9.12-16.31 8.84-14.90L8.84-14.90Q7.90-9.96 7.90-8.32L7.90-8.32Q7.90-7.33 8.13-6.93Q8.37-6.53 8.88-6.53L8.88-6.53Q9.59-6.53 10.65-7.94Q11.70-9.35 12.90-12.22Q14.10-15.09 15.23-19.27L15.23-19.27Q15.60-20.68 16.38-21.29Q17.16-21.90 18.71-21.90L18.71-21.90Q19.79-21.90 20.21-21.64Q20.63-21.39 20.63-20.68L20.63-20.68Q20.63-19.50 19.46-14.24L19.46-14.24Q18.14-8.22 18.14-6.82L18.14-6.82Q18.14-5.92 18.52-5.43Q18.89-4.93 19.50-4.93L19.50-4.93Q20.45-4.93 21.74-6.09Q23.03-7.24 25.19-9.82L25.19-9.82Q25.76-10.48 26.46-10.48L26.46-10.48Q27.07-10.48 27.42-9.92Q27.78-9.35 27.78-8.37L27.78-8.37Q27.78-6.49 26.88-5.45L26.88-5.45Q24.86-2.96 22.54-1.36Q20.21 0.23 17.25 0.23L17.25 0.23Q14.99 0.23 13.94-1.50Q12.88-3.24 12.88-6.39L12.88-6.39Q12.08-3.20 10.48-1.48Q8.88 0.23 7.05 0.23L7.05 0.23Z" transform="translate(-10.857 0), rotate(-22.184560946084368 15.0165 -522.3604793902591)"></path><path d="M27.35-10.48Q27.96-10.48 28.32-9.92Q28.67-9.35 28.67-8.37L28.67-8.37Q28.67-6.49 27.78-5.45L27.78-5.45Q25.76-2.96 23.43-1.36Q21.10 0.23 18.14 0.23L18.14 0.23Q15.65 0.23 14.10-1.55L14.10-1.55Q11.42 0.19 8.51 0.23L8.51 0.23Q7.90 9.31 5.73 15.39Q3.57 21.48-0.61 21.48L-0.61 21.48Q-3.15 21.48-4.37 19.65Q-5.59 17.81-5.59 14.57L-5.59 14.57Q-5.59 9.96-3.48 3.83Q-1.36-2.30 3.06-9.68L3.06-9.68Q3.06-16.54 2.96-19.22L2.96-19.22Q2.91-20.59 4.04-21.39Q5.17-22.18 6.86-22.18L6.86-22.18Q7.85-22.18 8.30-21.78Q8.74-21.39 8.79-20.21L8.79-20.21Q8.79-19.04 8.84-18.47L8.84-18.47Q10.34-20.35 11.80-21.17Q13.25-22.00 14.90-22.00L14.90-22.00Q17.53-22.00 19.20-19.88Q20.87-17.77 20.87-14.34L20.87-14.34Q20.87-11.84 20.07-9.49Q19.27-7.14 17.86-5.22L17.86-5.22Q18.85-4.93 19.50-4.93L19.50-4.93Q21.06-4.93 22.47-6.06Q23.88-7.19 26.09-9.82L26.09-9.82Q26.65-10.48 27.35-10.48L27.35-10.48ZM8.74-4.28Q10.43-4.65 11.87-6.13Q13.30-7.61 14.15-9.80Q14.99-11.98 14.99-14.38L14.99-14.38Q14.99-15.79 14.43-16.52Q13.87-17.25 12.93-17.25L12.93-17.25Q11.23-17.25 8.84-13.68L8.84-13.68Q8.79-11.61 8.79-7.61L8.79-7.61Q8.79-5.45 8.74-4.28L8.74-4.28ZM-0.23 16.87Q1.03 16.87 1.88 11.35Q2.73 5.83 2.96-2.40L2.96-2.40Q0.94 2.30-0.23 6.58Q-1.41 10.86-1.41 13.77L-1.41 13.77Q-1.41 15.28-1.06 16.07Q-0.70 16.87-0.23 16.87L-0.23 16.87Z" transform="translate(-11.3035 0), rotate(-24.994506006145834 11.538500000000003 -522.3604793902591)"></path><path d="M5.59 0.23Q3.81 0.23 3.08-1.65Q2.35-3.52 2.35-7.66L2.35-7.66Q2.35-13.77 4.09-19.27L4.09-19.27Q4.51-20.63 5.48-21.27Q6.44-21.90 8.18-21.90L8.18-21.90Q9.12-21.90 9.49-21.67Q9.87-21.43 9.87-20.77L9.87-20.77Q9.87-20.02 9.16-17.39L9.16-17.39Q9.07-17.06 8.77-15.89Q8.46-14.71 8.20-13.14Q7.94-11.56 7.85-9.68L7.85-9.68Q9.54-16.26 12.13-19.08Q14.71-21.90 18.38-21.90L18.38-21.90Q20.82-21.90 22.21-20.37Q23.59-18.85 23.59-16.45L23.59-16.45Q23.59-14.48 22.72-13.11Q21.86-11.75 20.45-11.75L20.45-11.75Q19.55-11.75 19.01-12.17Q18.47-12.60 18.47-13.35L18.47-13.35Q18.47-13.68 18.57-14.10Q18.66-14.52 18.71-14.71L18.71-14.71Q18.94-15.42 18.94-16.03L18.94-16.03Q18.94-17.30 17.72-17.30L17.72-17.30Q16.78-17.30 15.89-16.33Q14.99-15.37 14.45-13.75Q13.91-12.13 13.91-10.25L13.91-10.25Q13.91-7.71 15.09-6.18Q16.26-4.65 18.47-4.65L18.47-4.65Q20.21-4.65 21.57-5.80Q22.94-6.96 25.33-9.82L25.33-9.82Q25.90-10.48 26.60-10.48L26.60-10.48Q27.21-10.48 27.57-9.92Q27.92-9.35 27.92-8.37L27.92-8.37Q27.92-6.49 27.02-5.45L27.02-5.45Q24.91-2.91 22.80-1.34Q20.68 0.23 18.00 0.23L18.00 0.23Q15.79 0.23 13.98-0.73Q12.17-1.69 11.04-3.06Q9.92-4.42 9.59-5.69L9.59-5.69Q9.49-5.31 8.88-3.06L8.88-3.06Q8.37-1.18 7.68-0.47Q7.00 0.23 5.59 0.23L5.59 0.23Z" transform="translate(-10.9275 0), rotate(-27.813390446037815 15.133999999999999 -522.3604793902591)"></path><path d="M8.04 0.23Q5.12 0.23 3.38-1.88Q1.65-4.00 1.65-7.43L1.65-7.43Q1.65-11.19 3.38-14.55Q5.12-17.91 8.01-19.95Q10.90-22.00 14.15-22.00L14.15-22.00Q15.18-22.00 15.53-21.60Q15.89-21.20 16.12-20.16L16.12-20.16Q17.11-20.35 18.19-20.35L18.19-20.35Q20.49-20.35 20.49-18.71L20.49-18.71Q20.49-17.72 19.79-14.01L19.79-14.01Q18.71-8.60 18.71-6.49L18.71-6.49Q18.71-5.78 19.06-5.36Q19.41-4.93 19.98-4.93L19.98-4.93Q20.87-4.93 22.14-6.09Q23.41-7.24 25.57-9.82L25.57-9.82Q26.13-10.48 26.84-10.48L26.84-10.48Q27.45-10.48 27.80-9.92Q28.15-9.35 28.15-8.37L28.15-8.37Q28.15-6.49 27.26-5.45L27.26-5.45Q25.33-3.06 23.17-1.41Q21.01 0.23 18.99 0.23L18.99 0.23Q17.44 0.23 16.14-0.82Q14.85-1.88 14.19-3.71L14.19-3.71Q11.75 0.23 8.04 0.23L8.04 0.23ZM9.73-4.51Q10.76-4.51 11.70-5.73Q12.64-6.96 13.07-8.98L13.07-8.98L14.80-17.63Q12.83-17.58 11.16-16.14Q9.49-14.71 8.51-12.36Q7.52-10.01 7.52-7.38L7.52-7.38Q7.52-5.92 8.11-5.22Q8.70-4.51 9.73-4.51L9.73-4.51Z" transform="translate(-11.045 0), rotate(-30.599497159884535 14.899 -522.3604793902591)"></path></g></svg></g><g transform="rotate(0 0 0)"><svg data-root-id="1492114761197" xmlns="http://www.w3.org/2000/svg" y="385" viewBox="0 0 0 0" x="287.5" height="0" width="0" fontUrl="http://fonts.gstatic.com/s/baskervville/v3/YA9Ur0yU4l_XOrogbkun3kQgt5OohvbJ9A.ttf" zoom="1" editorType="buyer" data-layer-role="brandName" style="position: absolute; top: 385px; width: 0px; height: 0px; left: 287.495px;"><g data-horizontal-grow="center" zoom="1" root="[object Object]" style="fill: rgb(0, 0, 0); fill-opacity: 1;"></g></svg></g></svg>