<svg viewBox="0 0 575 575" class="roots-wrapper"><g transform="rotate(0 0 0)"><svg data-root-id="7941494661189" xmlns="http://www.w3.org/2000/svg" id="Layer_1" dataName="Layer 1" viewBox="-4.93994140625 -4.989990234375 280.18994140625 364.760009765625" height="197" width="150.04" y="188" x="213" preserveAspectRatio="xMinYMin" zoom="1" editorType="buyer" data-layer-role="icon" style="position: absolute; height: 197px; width: 150.04px; top: 188px; left: 213px;"><path class="cls-1" d="M631.69,594.49l3.44-4.71-3.44-4.71,2.89-5.06-3.93-4.3,2.3-5.35-4.39-3.83,1.69-5.58-4.8-3.31,1-5.74-5.14-2.74.4-5.82-5.42-2.15-.25-5.83-5.63-1.53-.9-5.76-5.76-.9-1.53-5.63-5.83-.25-2.15-5.42-5.82.4-2.75-5.14-5.73,1-3.31-4.8-5.58,1.69-3.83-4.4L561.92,507l-4.3-3.94-5.07,2.9-.67-.5V494.51a96.78,96.78,0,0,1,15.83,2l6.36-5.7a102.6,102.6,0,0,0-22.19-3.3V456.82l1.78-2.19-.89-2.77,6.65-4.62a2.92,2.92,0,1,0-3.33-4.8l-5.91,4.1-4.7-.24-7.88-2.44-.74.19,0-.07-1.81-1,.1-.35s-29.75-14.35-34.92-19.52-7.92-17.5-5.79-21.19c0,0-1.43-2.45-3.76-5.7l.11-.78.37.84.82-.46,2.31-4v-.49a2,2,0,0,0-.92.26c-.46.27-2.43-1.79-2.43-1.79l-.32,1.37a2.26,2.26,0,0,0-.11-.22,6.2,6.2,0,0,0,.43-1.15l1.47-4.24s8.33-.79,8.74-.56,1.93-1.67,1.93-1.67v-1.53l-1-1.22v-.66l.46-.8-.44-.77-.27-.67v-.45l1.27-.51v-2.39l-.56-.46,1.42-.45h.61l.36-1.58-.21-.37-3.5-4.1.41-2.08-3-6.53c3.8.37,6.3.78,6.3.78v-3.35c-2.07-.4-4.06-.71-6-1l3.72-27.61-3.23-4.93L466.87,326l-2.75,1.59,7.18,28.6A38.64,38.64,0,0,0,463,359l2.38,4.12a21.31,21.31,0,0,1,6.29-3l-.11.1v8.08l1.6,4.06s1.86,5.24,1.73,6.8l-.22,0-.7,1.74a12.81,12.81,0,0,0-1.27-.36l-2.74,5.18-4.58,5.49-6.55,14.49s5.94,59.6-28.81,88c8.63.52,18.49-7.83,18.49-7.83s-5.68,12.31-13.88,17.43c15.44,0,33.74-5.72,48.33-12.41,5.77,2.24,12.79,4.36,18.84,6a14.44,14.44,0,0,1-3.46,3.26l-.2.15a102.44,102.44,0,0,0-52.43,83c-.14,1.79-4.55,7.91-8.68,13.3a11.38,11.38,0,0,0-14.1,16l-15.26,15.25-.55-1.37-1.83.13-.87-1.62-1.81.33-1-1.52-1.77.54-1.2-1.39-1.69.73-1.36-1.24-1.6.91-1.49-1.09-1.48,1.09-1.6-.91L388,623.68l-1.69-.73-1.21,1.39-1.76-.54-1,1.52-1.81-.33-.87,1.62-1.84-.13-.68,1.71-1.83.08-.49,1.78-1.82.28-.28,1.82-1.78.49-.08,1.83-1.71.68.13,1.84-1.62.87.33,1.81-1.51,1,.53,1.76-1.39,1.21.73,1.69-1.24,1.36.91,1.6-1.08,1.48L366,651.3l-.91,1.6,1.24,1.35-.73,1.69,1.39,1.21-.54,1.76,1.52,1.05-.33,1.81,1.62.87-.13,1.83,1.71.68.08,1.84,1.78.49.28,1.81,1.82.29.49,1.77,1.83.08.68,1.72,1.84-.13.87,1.62,1.81-.33,1,1.51,1.76-.53,1.21,1.39L388,676l1.36,1.24,1.6-.91,1.48,1.08,1.49-1.08,1.6.91,1.35-1.24,1.69.73,1.21-1.39,1.76.53,1.05-1.51,1.81.33.87-1.62,1.83.13.68-1.72,1.84-.08.49-1.77,1.81-.29.29-1.81L414,667l.08-1.84,1.71-.68-.13-1.83,1.62-.87-.33-1.81,1.51-1.05-.53-1.76,1.39-1.21-.73-1.68,1.24-1.36-.91-1.6,1.08-1.49-1.08-1.48.91-1.6-1.24-1.36.73-1.69-1.39-1.21.53-1.76-1.51-1,.33-1.81-1.62-.87.13-1.84-1.71-.68-.07-1.55,15-15a11.37,11.37,0,0,0,13.68-16.6c4.6-6.7,9.76-14.77,10-17.57a95.51,95.51,0,0,1,62.26-83.51l.52.12s-7.72,6.95-9.05,9.25c-.49.86-2,3.19-3.95,6.33l-1.05-.07-2,4.94-.3.48-5.72.25-1.53,5.62-5.76.9-.9,5.76-5.63,1.54-.25,5.82-5.42,2.16.4,5.81-5.14,2.75,1.05,5.74-4.8,3.31,1.69,5.58-4.4,3.82,2.31,5.36L461.1,580l2.9,5.06-3.44,4.71,3.44,4.71-2.9,5.07,3.94,4.3-2.31,5.35,4.4,3.83-1.69,5.58,4.8,3.31-1.05,5.73,5.14,2.75-.4,5.81,5.42,2.16.25,5.82,5.62,1.54.9,5.76,5.76.9,1.54,5.62,5.82.26,2.16,5.42,5.81-.4,2.75,5.14,5.74-1.05,3.3,4.8,5.58-1.69,3.83,4.4,5.36-2.31,4.3,3.93,5.06-2.89,4.71,3.44,4.71-3.44,5.07,2.89,4.3-3.93,5.35,2.31,3.83-4.4,5.58,1.69,3.31-4.8,5.73,1.05,2.75-5.14,5.81.4,2.16-5.42,5.82-.25,1.54-5.63,5.76-.9.9-5.76,5.62-1.53.26-5.83,5.41-2.15-.39-5.82,5.14-2.75-1-5.73,4.8-3.31L628.56,613l4.39-3.83-2.3-5.35,3.93-4.3ZM399.12,634.15a6.26,6.26,0,0,1,4-1.81l-5.84,5.83A6.26,6.26,0,0,1,399.12,634.15Zm-4.9,20.3a.65.65,0,1,1,.41-.82A.64.64,0,0,1,394.22,654.45Zm-4.75-1.35a.65.65,0,0,1-.76-1.05.66.66,0,0,1,.91.14A.65.65,0,0,1,389.47,653.1Zm-1.32-5.77a.58.58,0,0,1,.1-.21.65.65,0,0,1,.34-.23ZM377.8,658.55a6.34,6.34,0,1,1,5.27-7.25A6.34,6.34,0,0,1,377.8,658.55Zm1.8-19.95a6.34,6.34,0,1,1,8.52,2.77A6.34,6.34,0,0,1,379.6,638.6Zm16.61,27.82a6.34,6.34,0,1,1-5.27-7.25A6.33,6.33,0,0,1,396.21,666.42Zm.53-16.24h0l.66-.66v0A.64.64,0,0,1,396.74,650.18Zm15.42,9.69a6.34,6.34,0,1,1-2.77-8.53A6.34,6.34,0,0,1,412.16,659.87Zm-4.07-16.75a6.31,6.31,0,0,1-6,1.66l7.63-7.63A6.32,6.32,0,0,1,408.09,643.12ZM567.93,539.69a20.09,20.09,0,0,1-16,19.68V520A20.1,20.1,0,0,1,567.93,539.69Zm-5.68,56.46a2,2,0,1,1-.9-2.76A2.05,2.05,0,0,1,562.25,596.15Zm-34.07-52.34,13.49.46,2.14-1v16.1A20.12,20.12,0,0,1,528.18,543.81Zm6.61,51a2,2,0,1,1-.64-4,2,2,0,1,1,.64,4Zm9-74.8v17.26a21,21,0,0,1-7.22.5c-2.05-.28-5.16-3-7.49-5.26A20.12,20.12,0,0,1,543.81,520Zm-.68-14.06-5.06-2.9-2.33,2.13,4.2-7.14v-3.26c1.29-.11,2.57-.2,3.87-.25v10.92Zm-6.86-61.68c-.24,1.29-1.81,8.9-4.65,11.85a5.36,5.36,0,0,1-2.17-.82c2.54-2.13,4.75-9.29,5.47-11.81Zm-23.21,5.64c2.13,0,10.67,4.27,15.4,6a1.87,1.87,0,0,0,.51-.22,5.84,5.84,0,0,0,2.77,1h.11l.08-.07a15.3,15.3,0,0,0,2.94-5.18,13.43,13.43,0,0,0,5.33,1.35,6.5,6.5,0,0,1,.95.06l-8.51,5.9a2.93,2.93,0,0,0,1.67,5.33,2.82,2.82,0,0,0,1.66-.53l7.84-5.43V487.2c-1.19-.11-2.39-.26-3.61-.45,1.94-5.78,3.49-10.26,3.2-12.1-.82-5.08-6.42-8.4-6.82-8.64s-22.92-3.38-31.22-4.55c-2.31-5.1-5.35-11.4-8-18.17C504,446.4,511.87,449.9,513.06,449.9ZM475,379.8c1.67.46,12.15,3.69,15.72,12.74l-.44,3c-3.83-5.25-9.79-12.2-15.8-14.47Zm6.13,188.29a20,20,0,0,1,3.43-6.32l1.25,3.44,2.85,2.84s6.91,9.55,11.28,10.88,3.13.6,3.13.6l1.34-1.42v-4.37l-4-4.47s-2.65-6.62-1.83-9.91a23,23,0,0,0,.46-5.1,20.08,20.08,0,1,1-18,13.83Zm53.56,74a20.09,20.09,0,1,1-4.45-28.06A20.09,20.09,0,0,1,534.65,642.12Zm4.38-63.2a2,2,0,1,1,2.76.89A2,2,0,0,1,539,578.92Zm9.55,24.83a2,2,0,1,1-1.7-2.34A2,2,0,0,1,548.58,603.75Zm-.74-7.71a6.26,6.26,0,1,1,6.26-6.26A6.26,6.26,0,0,1,547.84,596Zm7.61-15.1a2,2,0,1,1,2.9,0A2,2,0,0,1,555.45,580.94Zm33.65,65.63a20.09,20.09,0,1,1,4.44-28.07A20.09,20.09,0,0,1,589.1,646.57Zm12.6-53.16a20.09,20.09,0,1,1,12.89-25.32A20.09,20.09,0,0,1,601.7,593.41Z" transform="translate(-364.88 -322.64)" name="Layer 1" zoom="1" data-layer-id="2284950261195" style="fill: rgb(32, 44, 57); fill-opacity: 1;"></path></svg></g><g transform="rotate(0 0 0)"><svg data-root-id="0704713261204" xmlns="http://www.w3.org/2000/svg" y="339" viewBox="-263.93585205078125 -102.59764099121094 531.405517578125 106.56643676757812" x="21.13" height="106.57" width="531.41" fontUrl="http://fonts.gstatic.com/s/opensans/v18/mem8YaGs126MiZpBA-U1UpcaXcl0Aw.ttf" zoom="1" editorType="buyer" data-layer-role="slogan" style="position: absolute; top: 339px; width: 531.41px; height: 106.57px; left: 21.13px;"><g data-horizontal-grow="center" zoom="1" root="[object Object]" style="fill: rgb(32, 44, 57); fill-opacity: 1;"><path d="M18.56 0.71Q15.29 0.71 15.29-2.10L15.29-2.10Q15.29-3.02 15.56-4.22Q15.83-5.42 16.34-7.31L16.34-7.31Q16.93-9.28 17.22-10.67Q17.51-12.05 17.51-13.15L17.51-13.15Q17.51-16.00 14.99-16.00L14.99-16.00Q14.32-16.00 13.61-15.83L13.61-15.83L10.25 0L4.20 0L10.29-28.56Q7.48-27.38 5.94-25.03Q4.41-22.68 4.41-19.36L4.41-19.36Q4.41-17.81 4.70-17.20Q5.00-16.59 5.00-16.51L5.00-16.51Q2.73-16.51 1.62-17.45Q0.50-18.40 0.50-20.58L0.50-20.58Q0.50-23.27 2.71-25.81Q4.91-28.35 8.36-29.93Q11.80-31.50 15.25-31.50L15.25-31.50Q15.83-31.50 16.93-31.42L16.93-31.42L14.24-18.86Q15.08-21.34 16.57-23.90Q18.06-26.46 19.28-27.85L19.28-27.85Q22.26-31.50 25.45-31.50L25.45-31.50Q26.80-31.50 27.70-30.77Q28.60-30.03 28.60-28.69L28.60-28.69Q28.60-27.17 27.80-26.46Q27.01-25.75 25.87-25.75L25.87-25.75Q24.07-25.75 23.39-27.43L23.39-27.43Q21.25-26.12 19.51-23.73Q17.77-21.34 16.17-17.85L16.17-17.85Q16.84-17.89 17.93-17.89L17.93-17.89Q20.79-17.89 21.97-16.70Q23.14-15.50 23.14-13.40L23.14-13.40Q23.14-12.18 22.85-10.82Q22.55-9.45 22.01-7.43L22.01-7.43Q21.67-6.13 21.38-4.87Q21.08-3.61 21.08-2.77L21.08-2.77Q21.08-1.81 21.53-1.05Q21.97-0.29 22.72 0L22.72 0Q20.16 0.71 18.56 0.71L18.56 0.71Z" transform="translate(-13.335 0), rotate(30.25728987993139 14.552999999999999 -501.4201428616668)"></path><path d="M4.37 4.79Q2.81 4.79 1.64 4.54Q0.46 4.28-0.40 3.32Q-1.26 2.35-1.26 0.34L-1.26 0.34Q-1.26-3.99 2.33-11.78Q5.92-19.57 11.11-25.54Q16.30-31.50 20.96-31.50L20.96-31.50Q22.97-31.50 24.28-30.91L24.28-30.91L17.68 0L11.63 0L17.68-28.52Q14.66-26.92 11.42-21.06Q8.19-15.20 5.99-8.36Q3.78-1.51 3.78 2.44L3.78 2.44Q3.78 4.03 4.37 4.79L4.37 4.79Z" transform="translate(-11.529 0), rotate(27.007890222984564 11.508000000000001 -501.4201428616668)"></path><path d="M12.35 0.21Q10.54 0.21 9.60-0.65Q8.65-1.51 8.65-2.86L8.65-2.86Q8.65-4.24 9.41-5.04Q10.16-5.84 11.55-5.84L11.55-5.84Q12.64-5.84 13.31-5.19Q13.99-4.54 14.15-3.36L14.15-3.36Q15.50-3.86 16.67-6.47L16.67-6.47L10.67-28.69Q7.69-27.55 6.05-25.18Q4.41-22.81 4.41-19.36L4.41-19.36Q4.41-17.81 4.70-17.20Q5.00-16.59 5.00-16.51L5.00-16.51Q2.73-16.51 1.62-17.45Q0.50-18.40 0.50-20.58L0.50-20.58Q0.50-23.27 2.71-25.81Q4.91-28.35 8.36-29.93Q11.80-31.50 15.25-31.50L15.25-31.50Q15.83-31.50 16.93-31.42L16.93-31.42L20.58-15.67L27.22-31.29L29.99-31.29L19.49-6.47Q18.27-3.65 16.65-1.72Q15.04 0.21 12.35 0.21L12.35 0.21Z" transform="translate(-13.524000000000001 0), rotate(23.733790737564323 15.246 -501.4201428616668)"></path><path d="M15.79 0.71Q13.73 0.71 12.62-0.25Q11.51-1.22 11.51-2.77L11.51-2.77Q11.51-3.70 11.97-4.83L11.97-4.83Q13.15-3.32 14.78-3.32L14.78-3.32Q16.88-3.32 17.91-5.57Q18.94-7.81 18.94-10.67L18.94-10.67Q18.94-15.83 14.95-15.83L14.95-15.83Q13.82-15.83 12.94-15.41L12.94-15.41L9.62 0L3.57 0L9.62-28.06Q6.97-27.97 5.57-26.04Q4.16-24.11 4.16-19.36L4.16-19.36Q4.16-17.81 4.45-17.20Q4.75-16.59 4.75-16.51L4.75-16.51Q2.48-16.51 1.36-17.45Q0.25-18.40 0.25-20.58L0.25-20.58Q0.25-23.56 1.72-26.02Q3.19-28.48 6.41-29.99Q9.62-31.50 14.57-31.50L14.57-31.50Q15.54-31.50 17.56-31.29L17.56-31.29Q21.38-31.00 22.81-31.00L22.81-31.00Q25.03-31.00 26.59-31.50L26.59-31.50Q26.54-31.29 26.29-29.82Q26.04-28.35 25.10-27.41Q24.15-26.46 22.60-26.46L22.60-26.46Q19.53-26.46 15.50-27.30L15.50-27.30L13.40-17.56Q15.88-18.31 17.68-18.31L17.68-18.31Q21.21-18.31 23.00-16.19Q24.78-14.07 24.78-10.54L24.78-10.54Q24.78-8.23 23.79-5.61Q22.81-2.98 20.79-1.13Q18.77 0.71 15.79 0.71L15.79 0.71Z" transform="translate(-13.398000000000001 0), rotate(20.215437392795884 13.419000000000002 -501.4201428616668)"></path><path d="" transform="translate(-4.557 0), rotate(17.868953687821616 0 -501.4201428616668)"></path><path d="M4.37 4.79Q2.81 4.79 1.64 4.54Q0.46 4.28-0.40 3.32Q-1.26 2.35-1.26 0.34L-1.26 0.34Q-1.26-3.99 2.33-11.78Q5.92-19.57 11.11-25.54Q16.30-31.50 20.96-31.50L20.96-31.50Q22.97-31.50 24.28-30.91L24.28-30.91L17.68 0L11.63 0L17.68-28.52Q14.66-26.92 11.42-21.06Q8.19-15.20 5.99-8.36Q3.78-1.51 3.78 2.44L3.78 2.44Q3.78 4.03 4.37 4.79L4.37 4.79Z" transform="translate(-12.369 0), rotate(15.656946826758151 11.508000000000001 -501.4201428616668)"></path><path d="M23.86 0.25Q20.33 0.25 18.33-1.76Q16.34-3.78 16.34-8.19L16.34-8.19Q16.34-11.63 17.43-15.79L17.43-15.79L13.61-15.79L10.25 0L4.20 0L10.29-28.56Q7.48-27.38 5.94-25.03Q4.41-22.68 4.41-19.36L4.41-19.36Q4.41-17.81 4.70-17.20Q5.00-16.59 5.00-16.51L5.00-16.51Q2.73-16.51 1.62-17.45Q0.50-18.40 0.50-20.58L0.50-20.58Q0.50-23.27 2.71-25.81Q4.91-28.35 8.36-29.93Q11.80-31.50 15.25-31.50L15.25-31.50Q15.83-31.50 16.93-31.42L16.93-31.42L14.24-18.90L18.48-18.90Q19.99-22.68 22.28-25.07Q24.57-27.47 27.55-27.47L27.55-27.47Q28.81-27.47 29.74-27.13L29.74-27.13Q27.89-26.04 26.23-22.72Q24.57-19.40 23.56-15.33Q22.55-11.26 22.55-8.02L22.55-8.02Q22.55-5.75 23.14-4.45Q23.73-3.15 24.99-3.15L24.99-3.15Q27.05-3.15 29.09-6.03Q31.12-8.90 32.45-13.27Q33.77-17.64 33.77-21.80L33.77-21.80Q33.77-25.37 32.42-27.26Q31.08-29.15 27.97-29.15L27.97-29.15Q25.91-29.15 24.38-28.43Q22.85-27.72 22.09-26.46L22.09-26.46Q21.97-26.92 21.97-27.30L21.97-27.30Q21.97-28.43 22.91-29.40Q23.86-30.37 25.45-30.93Q27.05-31.50 28.98-31.50L28.98-31.50Q34.31-31.50 36.83-28.83Q39.35-26.17 39.35-20.75L39.35-20.75Q39.35-16.25 37.67-11.38Q35.99-6.51 32.49-3.13Q28.98 0.25 23.86 0.25L23.86 0.25Z" transform="translate(-20.286 0), rotate(11.389365351629504 19.929000000000002 -501.4201428616668)"></path><path d="M15.79 0.71Q13.73 0.71 12.62-0.25Q11.51-1.22 11.51-2.77L11.51-2.77Q11.51-3.70 11.97-4.83L11.97-4.83Q13.15-3.32 14.78-3.32L14.78-3.32Q16.88-3.32 17.91-5.57Q18.94-7.81 18.94-10.67L18.94-10.67Q18.94-15.83 14.95-15.83L14.95-15.83Q13.82-15.83 12.94-15.41L12.94-15.41L9.62 0L3.57 0L9.62-28.06Q6.97-27.97 5.57-26.04Q4.16-24.11 4.16-19.36L4.16-19.36Q4.16-17.81 4.45-17.20Q4.75-16.59 4.75-16.51L4.75-16.51Q2.48-16.51 1.36-17.45Q0.25-18.40 0.25-20.58L0.25-20.58Q0.25-23.56 1.72-26.02Q3.19-28.48 6.41-29.99Q9.62-31.50 14.57-31.50L14.57-31.50Q15.54-31.50 17.56-31.29L17.56-31.29Q21.38-31.00 22.81-31.00L22.81-31.00Q25.03-31.00 26.59-31.50L26.59-31.50Q26.54-31.29 26.29-29.82Q26.04-28.35 25.10-27.41Q24.15-26.46 22.60-26.46L22.60-26.46Q19.53-26.46 15.50-27.30L15.50-27.30L13.40-17.56Q15.88-18.31 17.68-18.31L17.68-18.31Q21.21-18.31 23.00-16.19Q24.78-14.07 24.78-10.54L24.78-10.54Q24.78-8.23 23.79-5.61Q22.81-2.98 20.79-1.13Q18.77 0.71 15.79 0.71L15.79 0.71Z" transform="translate(-12.558000000000002 0), rotate(7.097084048027444 13.419000000000002 -501.4201428616668)"></path><path d="M4.20 0L10.29-28.56Q7.48-27.38 5.94-25.03Q4.41-22.68 4.41-19.36L4.41-19.36Q4.41-17.81 4.70-17.20Q5.00-16.59 5.00-16.51L5.00-16.51Q2.73-16.51 1.62-17.45Q0.50-18.40 0.50-20.58L0.50-20.58Q0.50-23.27 2.71-25.81Q4.91-28.35 8.36-29.93Q11.80-31.50 15.25-31.50L15.25-31.50Q15.83-31.50 16.93-31.42L16.93-31.42L12.18-9.07L24.78-31.42L30.83-31.42L24.15 0L18.10 0L22.68-21.59L10.25 0L4.20 0Z" transform="translate(-14.805000000000001 0), rotate(3.521097770154377 15.666 -501.4201428616668)"></path><path d="M6.59 0L12.56-27.80L12.05-27.80Q8.32-27.80 6.24-25.94Q4.16-24.07 4.16-19.32L4.16-19.32Q4.16-17.77 4.45-17.16Q4.75-16.55 4.75-16.46L4.75-16.46Q2.48-16.46 1.36-17.41Q0.25-18.35 0.25-20.54L0.25-20.54Q0.25-23.52 1.72-25.98Q3.19-28.43 6.41-29.95Q9.62-31.46 14.57-31.46L14.57-31.46Q17.35-31.46 20.54-30.95L20.54-30.95Q23.23-30.49 25.33-30.49L25.33-30.49Q28.01-30.49 30.20-31.37L30.20-31.37Q30.11-28.64 28.81-27.34Q27.51-26.04 24.95-26.04L24.95-26.04Q23.60-26.04 22.26-26.25Q20.92-26.46 18.44-26.96L18.44-26.96L12.64 0L6.59 0Z" transform="translate(-10.101 0), rotate(0.26620926243567666 15.225000000000001 -501.4201428616668)"></path><path d="M8.02 0.76Q4.20 0.76 2.25-1.34Q0.29-3.44 0.29-6.64L0.29-6.64Q0.29-8.90 1.24-11.19Q2.18-13.48 3.95-15.20Q5.71-16.93 8.06-17.51L8.06-17.51Q6.76-18.44 6.13-19.76Q5.50-21.08 5.50-22.55L5.50-22.55Q5.50-24.74 6.70-26.84Q7.90-28.94 10.02-30.26Q12.14-31.58 14.70-31.58L14.70-31.58Q17.35-31.58 19.03-30.20Q20.71-28.81 20.71-26.33L20.71-26.33Q20.71-24.49 19.78-23.23Q18.86-21.97 17.60-21.97L17.60-21.97Q16.46-21.97 15.62-23.10L15.62-23.10Q16.38-23.35 16.93-24.49Q17.47-25.62 17.47-26.75L17.47-26.75Q17.47-27.97 16.80-28.54Q16.13-29.11 15.16-29.11L15.16-29.11Q13.94-29.11 12.96-28.25Q11.97-27.38 11.42-26.02Q10.88-24.65 10.88-23.18L10.88-23.18Q10.88-21.17 11.93-19.64Q12.98-18.10 15.12-17.56L15.12-17.56Q12.98-17.09 11.26-15.46Q9.53-13.82 8.57-11.66Q7.60-9.49 7.60-7.52L7.60-7.52Q7.60-5.63 8.59-4.45Q9.58-3.28 11.59-3.28L11.59-3.28Q13.69-3.28 15.98-4.43Q18.27-5.59 19.36-7.56L19.36-7.56L20.33-7.14Q18.69-3.53 15.29-1.39Q11.89 0.76 8.02 0.76L8.02 0.76Z" transform="translate(-9.387 0), rotate(-2.2806174957118373 10.5 -501.4201428616668)"></path><path d="M4.37 4.79Q2.81 4.79 1.64 4.54Q0.46 4.28-0.40 3.32Q-1.26 2.35-1.26 0.34L-1.26 0.34Q-1.26-3.99 2.33-11.78Q5.92-19.57 11.11-25.54Q16.30-31.50 20.96-31.50L20.96-31.50Q22.97-31.50 24.28-30.91L24.28-30.91L17.68 0L11.63 0L17.68-28.52Q14.66-26.92 11.42-21.06Q8.19-15.20 5.99-8.36Q3.78-1.51 3.78 2.44L3.78 2.44Q3.78 4.03 4.37 4.79L4.37 4.79Z" transform="translate(-11.529 0), rotate(-5.014065180102911 11.508000000000001 -501.4201428616668)"></path><path d="M8.02 0.76Q4.20 0.76 2.25-1.34Q0.29-3.44 0.29-6.64L0.29-6.64Q0.29-8.90 1.24-11.19Q2.18-13.48 3.95-15.20Q5.71-16.93 8.06-17.51L8.06-17.51Q6.76-18.44 6.13-19.76Q5.50-21.08 5.50-22.55L5.50-22.55Q5.50-24.74 6.70-26.84Q7.90-28.94 10.02-30.26Q12.14-31.58 14.70-31.58L14.70-31.58Q17.35-31.58 19.03-30.20Q20.71-28.81 20.71-26.33L20.71-26.33Q20.71-24.49 19.78-23.23Q18.86-21.97 17.60-21.97L17.60-21.97Q16.46-21.97 15.62-23.10L15.62-23.10Q16.38-23.35 16.93-24.49Q17.47-25.62 17.47-26.75L17.47-26.75Q17.47-27.97 16.80-28.54Q16.13-29.11 15.16-29.11L15.16-29.11Q13.94-29.11 12.96-28.25Q11.97-27.38 11.42-26.02Q10.88-24.65 10.88-23.18L10.88-23.18Q10.88-21.17 11.93-19.64Q12.98-18.10 15.12-17.56L15.12-17.56Q12.98-17.09 11.26-15.46Q9.53-13.82 8.57-11.66Q7.60-9.49 7.60-7.52L7.60-7.52Q7.60-5.63 8.59-4.45Q9.58-3.28 11.59-3.28L11.59-3.28Q13.69-3.28 15.98-4.43Q18.27-5.59 19.36-7.56L19.36-7.56L20.33-7.14Q18.69-3.53 15.29-1.39Q11.89 0.76 8.02 0.76L8.02 0.76Z" transform="translate(-10.059000000000001 0), rotate(-7.8353344768439115 10.5 -501.4201428616668)"></path><path d="M4.20 0L10.29-28.56Q7.48-27.38 5.94-25.03Q4.41-22.68 4.41-19.36L4.41-19.36Q4.41-17.81 4.70-17.20Q5.00-16.59 5.00-16.51L5.00-16.51Q2.73-16.51 1.62-17.45Q0.50-18.40 0.50-20.58L0.50-20.58Q0.50-23.27 2.71-25.81Q4.91-28.35 8.36-29.93Q11.80-31.50 15.25-31.50L15.25-31.50Q15.83-31.50 16.93-31.42L16.93-31.42L12.18-9.07L24.78-31.42L30.83-31.42L24.15 0L18.10 0L22.68-21.59L10.25 0L4.20 0ZM20.08-33.60Q17.47-33.60 16.04-34.57Q14.62-35.53 14.62-37.21L14.62-37.21Q14.62-38.60 15.39-39.44Q16.17-40.28 17.43-40.28L17.43-40.28Q18.65-40.28 19.34-39.69Q20.03-39.10 20.03-38.01L20.03-38.01Q20.03-36.67 19.03-35.99L19.03-35.99Q19.57-35.83 20.71-35.83L20.71-35.83Q22.60-35.83 24.38-36.98Q26.17-38.14 27.17-40.74L27.17-40.74L28.94-40.74Q27.59-36.83 25.37-35.22Q23.14-33.60 20.08-33.60L20.08-33.60Z" transform="translate(-14.805000000000001 0), rotate(-11.084734133790732 15.666 -501.4201428616668)"></path><path d="" transform="translate(-4.557 0), rotate(-13.615094339622637 0 -501.4201428616668)"></path><path d="M24.61 7.06Q22.81 7.06 21.42 6.32Q20.03 5.59 18.10 4.07L18.10 4.07Q16.46 2.77 15.18 1.95Q13.90 1.13 12.10 0.57Q10.29 0 7.98 0L7.98 0Q5.12 0 4.37 0.21L4.37 0.21L4.16 0.25L10.29-28.52Q7.48-27.38 5.94-25.05Q4.41-22.72 4.41-19.36L4.41-19.36Q4.41-17.81 4.70-17.20Q5.00-16.59 5.00-16.51L5.00-16.51Q2.73-16.51 1.62-17.45Q0.50-18.40 0.50-20.58L0.50-20.58Q0.50-23.52 2.79-26.02Q5.08-28.52 8.65-29.99Q12.22-31.46 15.79-31.46L15.79-31.46Q16.55-31.46 16.93-31.42L16.93-31.42L10.92-3.07Q12.35-3.07 13.69-2.75Q15.04-2.44 16.76-1.76L16.76-1.76L23.10-31.42L29.15-31.42L22.26 0.71Q24.61 1.72 26.29 1.72L26.29 1.72Q28.60 1.72 29.90 1.01L29.90 1.01Q29.61 4.12 28.39 5.59Q27.17 7.06 24.61 7.06L24.61 7.06Z" transform="translate(-14.532 0), rotate(-16.109777015437388 15.204 -501.4201428616668)"></path><path d="M4.20 0L10.29-28.56Q7.48-27.38 5.94-25.03Q4.41-22.68 4.41-19.36L4.41-19.36Q4.41-17.81 4.70-17.20Q5.00-16.59 5.00-16.51L5.00-16.51Q2.73-16.51 1.62-17.45Q0.50-18.40 0.50-20.58L0.50-20.58Q0.50-23.27 2.71-25.81Q4.91-28.35 8.36-29.93Q11.80-31.50 15.25-31.50L15.25-31.50Q15.83-31.50 16.93-31.42L16.93-31.42L12.18-9.07L24.78-31.42L30.83-31.42L24.15 0L18.10 0L22.68-21.59L10.25 0L4.20 0Z" transform="translate(-15.645000000000001 0), rotate(-20.053516295025723 15.666 -501.4201428616668)"></path><path d="M3.95 0L9.66-26.71L15.88-27.55L12.89-13.52Q14.91-13.69 16.61-15.29Q18.31-16.88 19.28-19.24Q20.24-21.59 20.24-23.86L20.24-23.86Q20.24-26.38 18.94-27.97Q17.64-29.57 15.04-29.57L15.04-29.57Q9.91-29.57 7.04-26.88Q4.16-24.19 4.16-19.36L4.16-19.36Q4.16-17.81 4.45-17.20Q4.75-16.59 4.75-16.51L4.75-16.51Q2.48-16.51 1.36-17.45Q0.25-18.40 0.25-20.58L0.25-20.58Q0.25-23.27 2.46-25.81Q4.66-28.35 8.11-29.93Q11.55-31.50 14.99-31.50L14.99-31.50Q18.31-31.50 20.54-30.37Q22.76-29.23 23.84-27.36Q24.91-25.49 24.91-23.23L24.91-23.23Q24.91-20.50 23.42-17.89Q21.92-15.29 19.15-13.63Q16.38-11.97 12.77-11.97L12.77-11.97L12.56-11.97L10.00 0L3.95 0Z" transform="translate(-11.613000000000001 0), rotate(-23.615780445969122 12.579000000000002 -501.4201428616668)"></path><path d="M18.56 0.71Q15.29 0.71 15.29-2.10L15.29-2.10Q15.29-3.02 15.56-4.22Q15.83-5.42 16.34-7.31L16.34-7.31Q16.93-9.28 17.22-10.67Q17.51-12.05 17.51-13.15L17.51-13.15Q17.51-16.00 14.99-16.00L14.99-16.00Q14.32-16.00 13.61-15.83L13.61-15.83L10.25 0L4.20 0L10.29-28.56Q7.48-27.38 5.94-25.03Q4.41-22.68 4.41-19.36L4.41-19.36Q4.41-17.81 4.70-17.20Q5.00-16.59 5.00-16.51L5.00-16.51Q2.73-16.51 1.62-17.45Q0.50-18.40 0.50-20.58L0.50-20.58Q0.50-23.27 2.71-25.81Q4.91-28.35 8.36-29.93Q11.80-31.50 15.25-31.50L15.25-31.50Q15.83-31.50 16.93-31.42L16.93-31.42L14.24-18.86Q15.08-21.34 16.57-23.90Q18.06-26.46 19.28-27.85L19.28-27.85Q22.26-31.50 25.45-31.50L25.45-31.50Q26.80-31.50 27.70-30.77Q28.60-30.03 28.60-28.69L28.60-28.69Q28.60-27.17 27.80-26.46Q27.01-25.75 25.87-25.75L25.87-25.75Q24.07-25.75 23.39-27.43L23.39-27.43Q21.25-26.12 19.51-23.73Q17.77-21.34 16.17-17.85L16.17-17.85Q16.84-17.89 17.93-17.89L17.93-17.89Q20.79-17.89 21.97-16.70Q23.14-15.50 23.14-13.40L23.14-13.40Q23.14-12.18 22.85-10.82Q22.55-9.45 22.01-7.43L22.01-7.43Q21.67-6.13 21.38-4.87Q21.08-3.61 21.08-2.77L21.08-2.77Q21.08-1.81 21.53-1.05Q21.97-0.29 22.72 0L22.72 0Q20.16 0.71 18.56 0.71L18.56 0.71Z" transform="translate(-12.243 0), rotate(-26.73344768439108 14.552999999999999 -501.4201428616668)"></path><path d="M9.16 4.79Q7.60 4.79 6.43 4.54Q5.25 4.28 4.39 3.32Q3.53 2.35 3.53 0.34L3.53 0.34Q3.53-2.48 5.23-7.22Q6.93-11.97 9.70-16.76L9.70-16.76Q7.60-16.63 6.38-16.13Q5.17-15.62 4.79-14.57L4.79-14.57Q4.96-14.57 5.15-14.15Q5.33-13.73 5.33-13.27L5.33-13.27Q5.33-12.52 4.66-12.08Q3.99-11.63 2.98-11.63L2.98-11.63Q1.81-11.63 1.09-12.26Q0.38-12.89 0.38-14.07L0.38-14.07Q0.38-15.50 1.49-16.67Q2.60-17.85 4.58-18.54Q6.55-19.24 8.95-19.24L8.95-19.24Q9.83-19.24 11.13-19.11L11.13-19.11Q14.57-24.57 18.42-28.04Q22.26-31.50 25.75-31.50L25.75-31.50Q27.76-31.50 29.06-30.91L29.06-30.91L22.47 0L16.42 0L19.66-15.25Q18.10-15.96 16.80-16.30Q15.50-16.63 14.03-16.76L14.03-16.76Q11.63-11.59 10.10-6.20Q8.57-0.80 8.57 2.44L8.57 2.44Q8.57 4.03 9.16 4.79L9.16 4.79ZM20.03-17.09L22.47-28.52Q20.66-27.55 18.71-24.93Q16.76-22.30 14.91-18.56L14.91-18.56Q17.93-17.98 20.03-17.09L20.03-17.09Z" transform="translate(-14.028 0), rotate(-30.166723842195545 14.721 -501.4201428616668)"></path></g></svg></g><g transform="rotate(0 0 0)"><svg data-root-id="1492114761197" xmlns="http://www.w3.org/2000/svg" y="385" viewBox="0 0 0 0" x="287.5" height="0" width="0" fontUrl="http://fonts.gstatic.com/s/baskervville/v3/YA9Ur0yU4l_XOrogbkun3kQgt5OohvbJ9A.ttf" zoom="1" editorType="buyer" data-layer-role="brandName" style="position: absolute; top: 385px; width: 0px; height: 0px; left: 287.495px;"><g data-horizontal-grow="center" zoom="1" root="[object Object]" style="fill: rgb(0, 0, 0); fill-opacity: 1;"></g></svg></g></svg>