<svg viewBox="0 0 575 575" class="roots-wrapper"><g transform="rotate(0 0 0)"><svg data-root-id="7941494661189" xmlns="http://www.w3.org/2000/svg" id="Layer_1" dataName="Layer 1" viewBox="-4.93994140625 -4.989990234375 280.18994140625 364.760009765625" height="230" width="175.17" y="133.12" x="189.44" preserveAspectRatio="xMinYMin" zoom="1" editorType="buyer" data-layer-role="icon" style="position: absolute; height: 229.999px; width: 175.17px; top: 133.121px; left: 189.44px;"><path class="cls-1" d="M631.69,594.49l3.44-4.71-3.44-4.71,2.89-5.06-3.93-4.3,2.3-5.35-4.39-3.83,1.69-5.58-4.8-3.31,1-5.74-5.14-2.74.4-5.82-5.42-2.15-.25-5.83-5.63-1.53-.9-5.76-5.76-.9-1.53-5.63-5.83-.25-2.15-5.42-5.82.4-2.75-5.14-5.73,1-3.31-4.8-5.58,1.69-3.83-4.4L561.92,507l-4.3-3.94-5.07,2.9-.67-.5V494.51a96.78,96.78,0,0,1,15.83,2l6.36-5.7a102.6,102.6,0,0,0-22.19-3.3V456.82l1.78-2.19-.89-2.77,6.65-4.62a2.92,2.92,0,1,0-3.33-4.8l-5.91,4.1-4.7-.24-7.88-2.44-.74.19,0-.07-1.81-1,.1-.35s-29.75-14.35-34.92-19.52-7.92-17.5-5.79-21.19c0,0-1.43-2.45-3.76-5.7l.11-.78.37.84.82-.46,2.31-4v-.49a2,2,0,0,0-.92.26c-.46.27-2.43-1.79-2.43-1.79l-.32,1.37a2.26,2.26,0,0,0-.11-.22,6.2,6.2,0,0,0,.43-1.15l1.47-4.24s8.33-.79,8.74-.56,1.93-1.67,1.93-1.67v-1.53l-1-1.22v-.66l.46-.8-.44-.77-.27-.67v-.45l1.27-.51v-2.39l-.56-.46,1.42-.45h.61l.36-1.58-.21-.37-3.5-4.1.41-2.08-3-6.53c3.8.37,6.3.78,6.3.78v-3.35c-2.07-.4-4.06-.71-6-1l3.72-27.61-3.23-4.93L466.87,326l-2.75,1.59,7.18,28.6A38.64,38.64,0,0,0,463,359l2.38,4.12a21.31,21.31,0,0,1,6.29-3l-.11.1v8.08l1.6,4.06s1.86,5.24,1.73,6.8l-.22,0-.7,1.74a12.81,12.81,0,0,0-1.27-.36l-2.74,5.18-4.58,5.49-6.55,14.49s5.94,59.6-28.81,88c8.63.52,18.49-7.83,18.49-7.83s-5.68,12.31-13.88,17.43c15.44,0,33.74-5.72,48.33-12.41,5.77,2.24,12.79,4.36,18.84,6a14.44,14.44,0,0,1-3.46,3.26l-.2.15a102.44,102.44,0,0,0-52.43,83c-.14,1.79-4.55,7.91-8.68,13.3a11.38,11.38,0,0,0-14.1,16l-15.26,15.25-.55-1.37-1.83.13-.87-1.62-1.81.33-1-1.52-1.77.54-1.2-1.39-1.69.73-1.36-1.24-1.6.91-1.49-1.09-1.48,1.09-1.6-.91L388,623.68l-1.69-.73-1.21,1.39-1.76-.54-1,1.52-1.81-.33-.87,1.62-1.84-.13-.68,1.71-1.83.08-.49,1.78-1.82.28-.28,1.82-1.78.49-.08,1.83-1.71.68.13,1.84-1.62.87.33,1.81-1.51,1,.53,1.76-1.39,1.21.73,1.69-1.24,1.36.91,1.6-1.08,1.48L366,651.3l-.91,1.6,1.24,1.35-.73,1.69,1.39,1.21-.54,1.76,1.52,1.05-.33,1.81,1.62.87-.13,1.83,1.71.68.08,1.84,1.78.49.28,1.81,1.82.29.49,1.77,1.83.08.68,1.72,1.84-.13.87,1.62,1.81-.33,1,1.51,1.76-.53,1.21,1.39L388,676l1.36,1.24,1.6-.91,1.48,1.08,1.49-1.08,1.6.91,1.35-1.24,1.69.73,1.21-1.39,1.76.53,1.05-1.51,1.81.33.87-1.62,1.83.13.68-1.72,1.84-.08.49-1.77,1.81-.29.29-1.81L414,667l.08-1.84,1.71-.68-.13-1.83,1.62-.87-.33-1.81,1.51-1.05-.53-1.76,1.39-1.21-.73-1.68,1.24-1.36-.91-1.6,1.08-1.49-1.08-1.48.91-1.6-1.24-1.36.73-1.69-1.39-1.21.53-1.76-1.51-1,.33-1.81-1.62-.87.13-1.84-1.71-.68-.07-1.55,15-15a11.37,11.37,0,0,0,13.68-16.6c4.6-6.7,9.76-14.77,10-17.57a95.51,95.51,0,0,1,62.26-83.51l.52.12s-7.72,6.95-9.05,9.25c-.49.86-2,3.19-3.95,6.33l-1.05-.07-2,4.94-.3.48-5.72.25-1.53,5.62-5.76.9-.9,5.76-5.63,1.54-.25,5.82-5.42,2.16.4,5.81-5.14,2.75,1.05,5.74-4.8,3.31,1.69,5.58-4.4,3.82,2.31,5.36L461.1,580l2.9,5.06-3.44,4.71,3.44,4.71-2.9,5.07,3.94,4.3-2.31,5.35,4.4,3.83-1.69,5.58,4.8,3.31-1.05,5.73,5.14,2.75-.4,5.81,5.42,2.16.25,5.82,5.62,1.54.9,5.76,5.76.9,1.54,5.62,5.82.26,2.16,5.42,5.81-.4,2.75,5.14,5.74-1.05,3.3,4.8,5.58-1.69,3.83,4.4,5.36-2.31,4.3,3.93,5.06-2.89,4.71,3.44,4.71-3.44,5.07,2.89,4.3-3.93,5.35,2.31,3.83-4.4,5.58,1.69,3.31-4.8,5.73,1.05,2.75-5.14,5.81.4,2.16-5.42,5.82-.25,1.54-5.63,5.76-.9.9-5.76,5.62-1.53.26-5.83,5.41-2.15-.39-5.82,5.14-2.75-1-5.73,4.8-3.31L628.56,613l4.39-3.83-2.3-5.35,3.93-4.3ZM399.12,634.15a6.26,6.26,0,0,1,4-1.81l-5.84,5.83A6.26,6.26,0,0,1,399.12,634.15Zm-4.9,20.3a.65.65,0,1,1,.41-.82A.64.64,0,0,1,394.22,654.45Zm-4.75-1.35a.65.65,0,0,1-.76-1.05.66.66,0,0,1,.91.14A.65.65,0,0,1,389.47,653.1Zm-1.32-5.77a.58.58,0,0,1,.1-.21.65.65,0,0,1,.34-.23ZM377.8,658.55a6.34,6.34,0,1,1,5.27-7.25A6.34,6.34,0,0,1,377.8,658.55Zm1.8-19.95a6.34,6.34,0,1,1,8.52,2.77A6.34,6.34,0,0,1,379.6,638.6Zm16.61,27.82a6.34,6.34,0,1,1-5.27-7.25A6.33,6.33,0,0,1,396.21,666.42Zm.53-16.24h0l.66-.66v0A.64.64,0,0,1,396.74,650.18Zm15.42,9.69a6.34,6.34,0,1,1-2.77-8.53A6.34,6.34,0,0,1,412.16,659.87Zm-4.07-16.75a6.31,6.31,0,0,1-6,1.66l7.63-7.63A6.32,6.32,0,0,1,408.09,643.12ZM567.93,539.69a20.09,20.09,0,0,1-16,19.68V520A20.1,20.1,0,0,1,567.93,539.69Zm-5.68,56.46a2,2,0,1,1-.9-2.76A2.05,2.05,0,0,1,562.25,596.15Zm-34.07-52.34,13.49.46,2.14-1v16.1A20.12,20.12,0,0,1,528.18,543.81Zm6.61,51a2,2,0,1,1-.64-4,2,2,0,1,1,.64,4Zm9-74.8v17.26a21,21,0,0,1-7.22.5c-2.05-.28-5.16-3-7.49-5.26A20.12,20.12,0,0,1,543.81,520Zm-.68-14.06-5.06-2.9-2.33,2.13,4.2-7.14v-3.26c1.29-.11,2.57-.2,3.87-.25v10.92Zm-6.86-61.68c-.24,1.29-1.81,8.9-4.65,11.85a5.36,5.36,0,0,1-2.17-.82c2.54-2.13,4.75-9.29,5.47-11.81Zm-23.21,5.64c2.13,0,10.67,4.27,15.4,6a1.87,1.87,0,0,0,.51-.22,5.84,5.84,0,0,0,2.77,1h.11l.08-.07a15.3,15.3,0,0,0,2.94-5.18,13.43,13.43,0,0,0,5.33,1.35,6.5,6.5,0,0,1,.95.06l-8.51,5.9a2.93,2.93,0,0,0,1.67,5.33,2.82,2.82,0,0,0,1.66-.53l7.84-5.43V487.2c-1.19-.11-2.39-.26-3.61-.45,1.94-5.78,3.49-10.26,3.2-12.1-.82-5.08-6.42-8.4-6.82-8.64s-22.92-3.38-31.22-4.55c-2.31-5.1-5.35-11.4-8-18.17C504,446.4,511.87,449.9,513.06,449.9ZM475,379.8c1.67.46,12.15,3.69,15.72,12.74l-.44,3c-3.83-5.25-9.79-12.2-15.8-14.47Zm6.13,188.29a20,20,0,0,1,3.43-6.32l1.25,3.44,2.85,2.84s6.91,9.55,11.28,10.88,3.13.6,3.13.6l1.34-1.42v-4.37l-4-4.47s-2.65-6.62-1.83-9.91a23,23,0,0,0,.46-5.1,20.08,20.08,0,1,1-18,13.83Zm53.56,74a20.09,20.09,0,1,1-4.45-28.06A20.09,20.09,0,0,1,534.65,642.12Zm4.38-63.2a2,2,0,1,1,2.76.89A2,2,0,0,1,539,578.92Zm9.55,24.83a2,2,0,1,1-1.7-2.34A2,2,0,0,1,548.58,603.75Zm-.74-7.71a6.26,6.26,0,1,1,6.26-6.26A6.26,6.26,0,0,1,547.84,596Zm7.61-15.1a2,2,0,1,1,2.9,0A2,2,0,0,1,555.45,580.94Zm33.65,65.63a20.09,20.09,0,1,1,4.44-28.07A20.09,20.09,0,0,1,589.1,646.57Zm12.6-53.16a20.09,20.09,0,1,1,12.89-25.32A20.09,20.09,0,0,1,601.7,593.41Z" transform="translate(-364.88 -322.64)" name="Layer 1" zoom="1" data-layer-id="2284950261195" style="fill: rgb(32, 44, 57); fill-opacity: 1;"></path></svg></g><g transform="rotate(0 0 0)"><svg data-root-id="0704713261204" xmlns="http://www.w3.org/2000/svg" y="412" viewBox="-268.33203125 -91.3589096069336 543.5580444335938 93.14640808105469" x="15.08" height="93.15" width="543.56" fontUrl="http://fonts.gstatic.com/s/opensans/v18/mem8YaGs126MiZpBA-U1UpcaXcl0Aw.ttf" zoom="1" editorType="buyer" data-layer-role="slogan" style="position: absolute; top: 412px; width: 543.558px; height: 93.1464px; left: 15.0758px;"><g data-horizontal-grow="center" zoom="1" root="[object Object]" style="fill: rgb(0, 0, 0); fill-opacity: 1;"><path d="M46.71-10.04Q47.30-10.04 47.63-9.49Q47.97-8.96 47.97-8.01L47.97-8.01Q47.97-6.25 47.11-5.22L47.11-5.22Q44.95-2.61 42.75-1.19Q40.55 0.22 37.53 0.22L37.53 0.22Q34.20 0.22 32.09-1.73Q29.97-3.69 28.13-7.83L28.13-7.83Q26.77-10.80 25.90-12.26Q25.02-13.72 24.16-14.33Q23.31-14.94 22.00-15.07L22.00-15.07L21.51-11.74Q20.56-5.31 17.84-2.48Q15.12 0.36 10.35 0.36L10.35 0.36Q7.25 0.36 4.84-1.15Q2.43-2.65 1.48-5.00L1.48-5.00Q1.17-5.80 1.17-6.75L1.17-6.75Q1.17-8.10 1.80-9.09Q2.43-10.08 3.42-10.08L3.42-10.08Q4.00-10.08 4.41-9.79Q4.81-9.49 5.17-8.78L5.17-8.78Q6.57-6.17 7.63-5.13Q8.69-4.09 10.26-4.09L10.26-4.09Q12.06-4.09 13.34-5.74Q14.63-7.38 15.16-10.80L15.16-10.80L15.79-15.07L15.07-15.07Q14.04-15.07 13.46-15.66Q12.87-16.25 12.87-17.28L12.87-17.28Q12.87-18.45 13.48-19.15Q14.08-19.84 14.98-19.84L14.98-19.84L16.47-19.84Q16.79-22.05 16.92-22.90L16.92-22.90L18.31-33.03Q17.14-33.16 16.11-33.16L16.11-33.16Q12.29-33.16 10.30-31.84Q8.32-30.51 8.32-28.04L8.32-28.04Q8.32-26.91 8.57-26.21Q8.82-25.52 9.22-24.66L9.22-24.66Q9.40-24.30 9.40-23.85L9.40-23.85Q9.40-22.86 8.48-22.12Q7.56-21.38 6.43-21.38L6.43-21.38Q5.00-21.38 4.32-22.63L4.32-22.63Q2.97-25.02 2.97-27.77L2.97-27.77Q2.97-30.60 4.52-32.94Q6.08-35.28 9.22-36.70Q12.38-38.12 17.01-38.12L17.01-38.12Q19.04-38.12 20.72-37.89Q22.41-37.66 24.43-37.03L24.43-37.03Q26.64-36.36 26.64-34.52L26.64-34.52Q26.64-32.04 24.52-32.04L24.52-32.04L22.77-19.93Q28.04-20.47 31.34-24.46Q34.65-28.44 36.85-35.28L36.85-35.28Q37.26-36.54 38.23-37.21Q39.20-37.89 40.68-37.89L40.68-37.89Q41.94-37.89 42.64-37.33Q43.34-36.77 43.34-35.73L43.34-35.73Q43.34-35.41 43.16-34.70L43.16-34.70Q40.91-27.27 36.72-22.90Q32.53-18.54 27.58-17.10L27.58-17.10Q29.29-16.70 30.40-15.88Q31.50-15.07 32.27-13.88Q33.03-12.69 34.02-10.57L34.02-10.57Q35.41-7.60 36.63-6.37Q37.84-5.13 39.46-5.13L39.46-5.13Q40.91-5.13 42.21-6.10Q43.52-7.06 45.49-9.40L45.49-9.40Q46.03-10.04 46.71-10.04L46.71-10.04Z" transform="translate(-21.5825 0), rotate(21.48436677231225 24.57 -680.9976067841753)"></path><path d="M28.71-10.04Q29.29-10.04 29.63-9.49Q29.97-8.96 29.97-8.01L29.97-8.01Q29.97-6.21 29.11-5.22L29.11-5.22Q27.63-3.46 26.53-2.41Q25.43-1.35 23.83-0.56Q22.23 0.22 20.20 0.22L20.20 0.22Q17.55 0.22 16.43-1.87Q15.30-3.96 15.30-8.19L15.30-8.19Q15.30-10.30 15.48-12.29L15.48-12.29L15.39-12.29Q13.59-6.30 10.96-3.06Q8.32 0.18 4.95 0.18L4.95 0.18Q2.65 0.18 1.35-1.48Q0.04-3.15 0.04-5.67L0.04-5.67Q0.04-7.92 1.08-9.31Q2.11-10.71 4.00-10.71L4.00-10.71Q4.86-10.71 5.29-10.35Q5.71-9.99 5.63-9.36L5.63-9.36Q5.26-7.20 5.26-6.39L5.26-6.39Q5.26-4.77 6.08-4.77L6.08-4.77Q6.52-4.77 7.09-5.44Q7.65-6.12 9-8.73L9-8.73Q10.04-10.71 11.14-13.18Q12.24-15.66 12.96-17.59L12.96-17.59Q13.68-19.48 14.63-20.18Q15.57-20.88 17.32-20.88L17.32-20.88Q19.04-20.88 19.84-20.20Q20.65-19.53 20.65-18L20.65-18L20.56-14.67Q20.38-10.89 20.38-9.22L20.38-9.22Q20.38-4.50 22.32-4.50L22.32-4.50Q23.13-4.50 23.92-5.26Q24.70-6.03 26.37-8.05L26.37-8.05L27.49-9.40Q28.04-10.04 28.71-10.04L28.71-10.04Z" transform="translate(-12.8525 0), rotate(18.268412633754263 15.007499999999999 -680.9976067841753)"></path><path d="M25.20-9.95Q25.79-9.95 26.12-9.38Q26.46-8.82 26.46-7.96L26.46-7.96Q26.46-6.93 26.14-6.34Q25.83-5.76 25.15-5.31L25.15-5.31L16.52 0.49Q14.80 9.81 12.04 15.14Q9.27 20.47 5.00 20.47L5.00 20.47Q2.70 20.47 1.26 19.06Q-0.18 17.64-0.18 15.34L-0.18 15.34Q-0.18 13.23 0.79 11.03Q1.75 8.82 4.39 5.96Q7.02 3.10 11.83-0.58L11.83-0.58L11.97-1.62Q12.29-3.28 12.69-6.39L12.69-6.39Q11.79-3.15 10.17-1.46Q8.55 0.22 6.75 0.22L6.75 0.22Q4.72 0.22 3.44-1.64Q2.16-3.51 2.16-6.30L2.16-6.30Q2.16-9.67 2.61-12.49Q3.06-15.30 4.09-18.45L4.09-18.45Q4.54-19.80 5.35-20.38Q6.17-20.97 7.92-20.97L7.92-20.97Q8.91-20.97 9.29-20.65Q9.67-20.34 9.67-19.71L9.67-19.71Q9.67-19.35 9.18-17.28L9.18-17.28Q8.73-15.62 8.46-14.26L8.46-14.26Q8.10-12.42 7.83-10.73Q7.56-9.04 7.56-7.96L7.56-7.96Q7.56-6.25 8.50-6.25L8.50-6.25Q9.18-6.25 10.19-7.60Q11.21-8.96 12.35-11.70Q13.50-14.45 14.58-18.45L14.58-18.45Q14.94-19.80 15.68-20.38Q16.43-20.97 17.91-20.97L17.91-20.97Q18.95-20.97 19.35-20.70Q19.75-20.43 19.75-19.80L19.75-19.80Q19.75-18.68 18.59-12.06L18.59-12.06L17.41-4.81Q20.88-7.42 24.16-9.58L24.16-9.58Q24.75-9.95 25.20-9.95L25.20-9.95ZM5.49 16.11Q6.61 16.11 8.01 13.50Q9.40 10.89 10.80 4.81L10.80 4.81Q7.33 7.74 5.78 10.15Q4.23 12.55 4.23 14.35L4.23 14.35Q4.23 15.12 4.52 15.62Q4.81 16.11 5.49 16.11L5.49 16.11Z" transform="translate(-11.0525 0), rotate(16.035876444347302 13.139999999999999 -680.9976067841753)"></path><path d="M26.10-13.81Q26.68-13.81 27-13.23Q27.31-12.64 27.31-11.74L27.31-11.74Q27.31-10.62 27-10.01Q26.68-9.40 26.01-9.18L26.01-9.18Q22.77-8.05 19.17-8.05L19.17-8.05Q18-4.05 15.50-1.93Q13.00 0.18 9.58 0.18L9.58 0.18Q5.89 0.18 3.82-2.00Q1.75-4.18 1.75-8.69L1.75-8.69Q1.75-12.06 2.99-14.74Q4.23-17.41 6.34-18.92Q8.46-20.43 11.03-20.43L11.03-20.43Q12.38-20.43 13.37-19.93L13.37-19.93Q12.73-20.97 11.95-21.91Q11.16-22.86 9.90-24.25L9.90-24.25Q8.28-26.05 7.38-27.18Q6.48-28.30 5.85-29.68Q5.22-31.05 5.22-32.53L5.22-32.53Q5.22-34.60 6.39-35.84Q7.56-37.08 9.27-37.71Q10.98-38.34 13.86-39.02L13.86-39.02Q15.30-39.38 16.79-39.80Q18.27-40.23 19.26-40.73L19.26-40.73Q19.53-40.86 19.80-40.86L19.80-40.86Q20.43-40.86 20.81-40.05Q21.20-39.24 21.20-38.16L21.20-38.16Q21.20-37.39 20.97-36.79Q20.75-36.18 20.34-35.91L20.34-35.91Q19.17-35.14 17.80-34.81Q16.43-34.47 14.49-34.20L14.49-34.20Q12.38-33.88 11.41-33.50Q10.44-33.12 10.44-32.04L10.44-32.04Q10.44-31.32 11.14-30.40Q11.83-29.47 13.32-27.86L13.32-27.86Q15.30-25.70 16.65-23.96Q18-22.23 19.01-19.91Q20.02-17.59 20.02-14.98L20.02-14.98Q20.02-14.22 19.93-12.78L19.93-12.78Q22.41-12.91 25.47-13.72L25.47-13.72Q25.74-13.81 26.10-13.81L26.10-13.81ZM9.58-4.54Q10.98-4.54 12.17-6.10Q13.37-7.65 14.08-10.13L14.08-10.13Q13.23-11.07 12.80-12.29Q12.38-13.50 12.38-14.80L12.38-14.80Q12.38-15.21 12.46-16.02L12.46-16.02L11.61-16.06Q10.48-16.06 9.52-15.12Q8.55-14.17 7.96-12.49Q7.38-10.80 7.38-8.69L7.38-8.69Q7.38-6.71 7.90-5.63Q8.41-4.54 9.58-4.54L9.58-4.54Z" transform="translate(-11.1425 0), rotate(13.963040605657175 14.535 -680.9976067841753)"></path><path d="" transform="translate(-6.4624999999999995 0), rotate(12.318874129417496 0 -680.9976067841753)"></path><path d="M43.29-10.04Q43.88-10.04 44.21-9.49Q44.55-8.96 44.55-8.01L44.55-8.01Q44.55-6.25 43.70-5.22L43.70-5.22Q41.35-2.34 39.24-1.06Q37.13 0.22 34.70 0.22L34.70 0.22Q29.92 0.22 27.72-4.27Q25.52-8.78 25.52-16.47L25.52-16.47Q25.52-20.02 25.92-23.85L25.92-23.85Q23.80-16.29 21.55-11.07Q19.30-5.85 16.20-2.75Q13.09 0.36 9 0.36L9 0.36Q6.12 0.36 3.96-1.08Q1.80-2.52 0.77-5.00L0.77-5.00Q0.36-6.03 0.36-6.93L0.36-6.93Q0.36-8.28 1.10-9.20Q1.84-10.13 3.01-10.13L3.01-10.13Q3.96-10.13 4.54-9.67Q5.13-9.22 5.40-8.23L5.40-8.23Q5.94-6.30 6.84-5.42Q7.74-4.54 9.09-4.54L9.09-4.54Q10.71-4.54 12.96-7.40Q15.21-10.26 17.59-15.57L17.59-15.57Q20.38-21.78 24.21-34.52L24.21-34.52Q24.79-36.41 25.99-37.28Q27.18-38.16 29.02-38.16L29.02-38.16Q30.87-38.16 31.59-37.33Q32.31-36.49 32.17-34.60L32.17-34.60Q31.50-25.43 31.50-19.84L31.50-19.84Q31.50-13.00 32.51-9.07Q33.52-5.13 36-5.13L36-5.13Q37.44-5.13 38.72-6.05Q40.00-6.97 42.07-9.40L42.07-9.40Q42.57-10.04 43.29-10.04L43.29-10.04Z" transform="translate(-19.8725 0), rotate(9.859395336360297 22.455 -680.9976067841753)"></path><path d="M35.23-13.81Q35.82-13.81 36.13-13.23Q36.45-12.64 36.45-11.74L36.45-11.74Q36.45-9.58 35.14-9.18L35.14-9.18Q32.45-8.23 29.20-8.10L29.20-8.10Q28.35-4.32 25.83-2.05Q23.31 0.22 20.11 0.22L20.11 0.22Q17.55 0.22 15.68-0.97Q13.81-2.16 12.80-4.12Q11.79-6.08 11.65-8.46L11.65-8.46L7.56-8.46L7.51-6.79L7.51-5.85Q7.47-3.06 7.38-1.93Q7.29-0.81 6.84-0.29Q6.39 0.22 5.35 0.22L5.35 0.22Q3.65 0.22 2.95-1.57Q2.25-3.38 2.25-7.33L2.25-7.33Q2.25-13.18 3.92-18.45L3.92-18.45Q4.32-19.75 5.24-20.36Q6.17-20.97 7.83-20.97L7.83-20.97Q8.73-20.97 9.09-20.75Q9.45-20.52 9.45-19.89L9.45-19.89Q9.45-19.17 8.78-16.65L8.78-16.65Q8.41-15.16 8.10-13.05L8.10-13.05L12.11-13.05Q13.05-16.70 15.62-18.86Q18.18-21.02 21.60-21.02L21.60-21.02Q25.02-21.02 27.11-18.65Q29.20-16.29 29.56-12.82L29.56-12.82Q31.68-12.96 34.60-13.72L34.60-13.72Q34.96-13.81 35.23-13.81L35.23-13.81ZM20.47-4.54Q21.91-4.54 22.97-5.71Q24.03-6.88 24.39-9.09L24.39-9.09Q22.99-10.04 22.25-11.56Q21.51-13.09 21.51-14.80L21.51-14.80Q21.51-15.52 21.64-16.25L21.64-16.25L21.42-16.25Q19.62-16.25 18.43-14.51Q17.23-12.78 17.23-9.63L17.23-9.63Q17.23-7.15 18.20-5.85Q19.17-4.54 20.47-4.54L20.47-4.54Z" transform="translate(-15.709999999999999 0), rotate(6.536273857189698 19.349999999999998 -680.9976067841753)"></path><path d="M26.10-13.81Q26.68-13.81 27-13.23Q27.31-12.64 27.31-11.74L27.31-11.74Q27.31-10.62 27-10.01Q26.68-9.40 26.01-9.18L26.01-9.18Q22.77-8.05 19.17-8.05L19.17-8.05Q18-4.05 15.50-1.93Q13.00 0.18 9.58 0.18L9.58 0.18Q5.89 0.18 3.82-2.00Q1.75-4.18 1.75-8.69L1.75-8.69Q1.75-12.06 2.99-14.74Q4.23-17.41 6.34-18.92Q8.46-20.43 11.03-20.43L11.03-20.43Q12.38-20.43 13.37-19.93L13.37-19.93Q12.73-20.97 11.95-21.91Q11.16-22.86 9.90-24.25L9.90-24.25Q8.28-26.05 7.38-27.18Q6.48-28.30 5.85-29.68Q5.22-31.05 5.22-32.53L5.22-32.53Q5.22-34.60 6.39-35.84Q7.56-37.08 9.27-37.71Q10.98-38.34 13.86-39.02L13.86-39.02Q15.30-39.38 16.79-39.80Q18.27-40.23 19.26-40.73L19.26-40.73Q19.53-40.86 19.80-40.86L19.80-40.86Q20.43-40.86 20.81-40.05Q21.20-39.24 21.20-38.16L21.20-38.16Q21.20-37.39 20.97-36.79Q20.75-36.18 20.34-35.91L20.34-35.91Q19.17-35.14 17.80-34.81Q16.43-34.47 14.49-34.20L14.49-34.20Q12.38-33.88 11.41-33.50Q10.44-33.12 10.44-32.04L10.44-32.04Q10.44-31.32 11.14-30.40Q11.83-29.47 13.32-27.86L13.32-27.86Q15.30-25.70 16.65-23.96Q18-22.23 19.01-19.91Q20.02-17.59 20.02-14.98L20.02-14.98Q20.02-14.22 19.93-12.78L19.93-12.78Q22.41-12.91 25.47-13.72L25.47-13.72Q25.74-13.81 26.10-13.81L26.10-13.81ZM9.58-4.54Q10.98-4.54 12.17-6.10Q13.37-7.65 14.08-10.13L14.08-10.13Q13.23-11.07 12.80-12.29Q12.38-13.50 12.38-14.80L12.38-14.80Q12.38-15.21 12.46-16.02L12.46-16.02L11.61-16.06Q10.48-16.06 9.52-15.12Q8.55-14.17 7.96-12.49Q7.38-10.80 7.38-8.69L7.38-8.69Q7.38-6.71 7.90-5.63Q8.41-4.54 9.58-4.54L9.58-4.54Z" transform="translate(-11.1425 0), rotate(4.028464694836618 14.535 -680.9976067841753)"></path><path d="M6.75 0.22Q4.72 0.22 3.44-1.64Q2.16-3.51 2.16-6.30L2.16-6.30Q2.16-9.67 2.61-12.49Q3.06-15.30 4.09-18.45L4.09-18.45Q4.54-19.80 5.35-20.38Q6.17-20.97 7.92-20.97L7.92-20.97Q8.91-20.97 9.29-20.65Q9.67-20.34 9.67-19.71L9.67-19.71Q9.67-19.35 9.18-17.28L9.18-17.28Q8.73-15.62 8.46-14.26L8.46-14.26Q7.56-9.54 7.56-7.96L7.56-7.96Q7.56-7.02 7.79-6.64Q8.01-6.25 8.50-6.25L8.50-6.25Q9.18-6.25 10.19-7.60Q11.21-8.96 12.35-11.70Q13.50-14.45 14.58-18.45L14.58-18.45Q14.94-19.80 15.68-20.38Q16.43-20.97 17.91-20.97L17.91-20.97Q18.95-20.97 19.35-20.72Q19.75-20.47 19.75-19.80L19.75-19.80Q19.75-18.68 18.63-13.63L18.63-13.63Q17.37-7.88 17.37-6.52L17.37-6.52Q17.37-5.67 17.73-5.20Q18.09-4.72 18.68-4.72L18.68-4.72Q19.57-4.72 20.81-5.83Q22.05-6.93 24.12-9.40L24.12-9.40Q24.66-10.04 25.33-10.04L25.33-10.04Q25.92-10.04 26.26-9.49Q26.59-8.96 26.59-8.01L26.59-8.01Q26.59-6.21 25.74-5.22L25.74-5.22Q23.80-2.83 21.58-1.30Q19.35 0.22 16.52 0.22L16.52 0.22Q14.35 0.22 13.34-1.44Q12.33-3.10 12.33-6.12L12.33-6.12Q11.56-3.06 10.04-1.42Q8.50 0.22 6.75 0.22L6.75 0.22Z" transform="translate(-10.895 0), rotate(1.9703380989756702 14.3775 -680.9976067841753)"></path><path d="M5.35 0.22Q3.65 0.22 2.95-1.57Q2.25-3.38 2.25-7.33L2.25-7.33Q2.25-13.18 3.92-18.45L3.92-18.45Q4.32-19.75 5.24-20.36Q6.17-20.97 7.83-20.97L7.83-20.97Q8.73-20.97 9.09-20.75Q9.45-20.52 9.45-19.89L9.45-19.89Q9.45-19.17 8.78-16.65L8.78-16.65Q8.32-14.85 8.05-13.52Q7.79-12.20 7.60-10.21L7.60-10.21Q8.82-13.72 10.51-16.16Q12.20-18.59 13.97-19.78Q15.75-20.97 17.32-20.97L17.32-20.97Q18.90-20.97 19.55-20.25Q20.20-19.53 20.20-18.04L20.20-18.04Q20.20-16.61 19.35-12.82L19.35-12.82Q18.99-11.21 18.86-10.39L18.86-10.39Q21.11-15.93 23.85-18.45Q26.59-20.97 28.98-20.97L28.98-20.97Q31.90-20.97 31.90-18.04L31.90-18.04Q31.90-16.29 30.91-11.70L30.91-11.70Q30.06-7.79 30.06-6.52L30.06-6.52Q30.06-4.72 31.36-4.72L31.36-4.72Q32.27-4.72 33.50-5.83Q34.74-6.93 36.81-9.40L36.81-9.40Q37.35-10.04 38.02-10.04L38.02-10.04Q38.61-10.04 38.95-9.49Q39.28-8.96 39.28-8.01L39.28-8.01Q39.28-6.21 38.43-5.22L38.43-5.22Q36.49-2.83 34.27-1.30Q32.04 0.22 29.20 0.22L29.20 0.22Q26.91 0.22 25.74-1.10Q24.57-2.43 24.57-4.95L24.57-4.95Q24.57-6.21 25.20-9.45L25.20-9.45Q25.79-12.29 25.79-13.37L25.79-13.37Q25.79-14.08 25.29-14.08L25.29-14.08Q24.70-14.08 23.63-12.58Q22.54-11.07 21.46-8.59Q20.38-6.12 19.71-3.38L19.71-3.38Q19.21-1.21 18.56-0.49Q17.91 0.22 16.47 0.22L16.47 0.22Q14.98 0.22 14.24-1.19Q13.50-2.61 13.50-4.63L13.50-4.63Q13.50-6.34 13.95-9.58L13.95-9.58Q14.31-12.46 14.31-13.37L14.31-13.37Q14.31-14.08 13.81-14.08L13.81-14.08Q13.14-14.08 12.11-12.46Q11.07-10.84 10.10-8.32Q9.13-5.80 8.55-3.38L8.55-3.38Q8.05-1.26 7.40-0.52Q6.75 0.22 5.35 0.22L5.35 0.22Z" transform="translate(-17.24 0), rotate(-0.6572463264150379 20.7675 -680.9976067841753)"></path><path d="M22.23-10.04Q22.81-10.04 23.15-9.49Q23.49-8.96 23.49-8.01L23.49-8.01Q23.49-6.21 22.63-5.22L22.63-5.22Q20.97-3.19 17.93-1.48Q14.89 0.22 11.43 0.22L11.43 0.22Q6.71 0.22 4.09-2.34Q1.48-4.91 1.48-9.36L1.48-9.36Q1.48-12.46 2.79-15.14Q4.09-17.82 6.41-19.39Q8.73-20.97 11.65-20.97L11.65-20.97Q14.26-20.97 15.84-19.42Q17.41-17.86 17.41-15.21L17.41-15.21Q17.41-12.11 15.19-9.88Q12.96-7.65 7.65-6.34L7.65-6.34Q8.78-4.27 11.92-4.27L11.92-4.27Q13.95-4.27 16.54-5.69Q19.13-7.11 21.02-9.40L21.02-9.40Q21.55-10.04 22.23-10.04L22.23-10.04ZM10.89-16.56Q9.22-16.56 8.08-14.63Q6.93-12.69 6.93-9.95L6.93-9.95L6.93-9.86Q9.58-10.48 11.12-11.74Q12.64-13.00 12.64-14.67L12.64-14.67Q12.64-15.52 12.17-16.04Q11.70-16.56 10.89-16.56L10.89-16.56Z" transform="translate(-9.3425 0), rotate(-3.1398396439180907 12.487499999999999 -680.9976067841753)"></path><path d="M28.71-10.04Q29.29-10.04 29.63-9.49Q29.97-8.96 29.97-8.01L29.97-8.01Q29.97-6.21 29.11-5.22L29.11-5.22Q27.63-3.46 26.53-2.41Q25.43-1.35 23.83-0.56Q22.23 0.22 20.20 0.22L20.20 0.22Q17.55 0.22 16.43-1.87Q15.30-3.96 15.30-8.19L15.30-8.19Q15.30-10.30 15.48-12.29L15.48-12.29L15.39-12.29Q13.59-6.30 10.96-3.06Q8.32 0.18 4.95 0.18L4.95 0.18Q2.65 0.18 1.35-1.48Q0.04-3.15 0.04-5.67L0.04-5.67Q0.04-7.92 1.08-9.31Q2.11-10.71 4.00-10.71L4.00-10.71Q4.86-10.71 5.29-10.35Q5.71-9.99 5.63-9.36L5.63-9.36Q5.26-7.20 5.26-6.39L5.26-6.39Q5.26-4.77 6.08-4.77L6.08-4.77Q6.52-4.77 7.09-5.44Q7.65-6.12 9-8.73L9-8.73Q10.04-10.71 11.14-13.18Q12.24-15.66 12.96-17.59L12.96-17.59Q13.68-19.48 14.63-20.18Q15.57-20.88 17.32-20.88L17.32-20.88Q19.04-20.88 19.84-20.20Q20.65-19.53 20.65-18L20.65-18L20.56-14.67Q20.38-10.89 20.38-9.22L20.38-9.22Q20.38-4.50 22.32-4.50L22.32-4.50Q23.13-4.50 23.92-5.26Q24.70-6.03 26.37-8.05L26.37-8.05L27.49-9.40Q28.04-10.04 28.71-10.04L28.71-10.04Z" transform="translate(-12.8525 0), rotate(-5.212675482608219 15.007499999999999 -680.9976067841753)"></path><path d="M22.23-10.04Q22.81-10.04 23.15-9.49Q23.49-8.96 23.49-8.01L23.49-8.01Q23.49-6.21 22.63-5.22L22.63-5.22Q20.97-3.19 17.93-1.48Q14.89 0.22 11.43 0.22L11.43 0.22Q6.71 0.22 4.09-2.34Q1.48-4.91 1.48-9.36L1.48-9.36Q1.48-12.46 2.79-15.14Q4.09-17.82 6.41-19.39Q8.73-20.97 11.65-20.97L11.65-20.97Q14.26-20.97 15.84-19.42Q17.41-17.86 17.41-15.21L17.41-15.21Q17.41-12.11 15.19-9.88Q12.96-7.65 7.65-6.34L7.65-6.34Q8.78-4.27 11.92-4.27L11.92-4.27Q13.95-4.27 16.54-5.69Q19.13-7.11 21.02-9.40L21.02-9.40Q21.55-10.04 22.23-10.04L22.23-10.04ZM10.89-16.56Q9.22-16.56 8.08-14.63Q6.93-12.69 6.93-9.95L6.93-9.95L6.93-9.86Q9.58-10.48 11.12-11.74Q12.64-13.00 12.64-14.67L12.64-14.67Q12.64-15.52 12.17-16.04Q11.70-16.56 10.89-16.56L10.89-16.56Z" transform="translate(-9.3425 0), rotate(-7.2855113212983476 12.487499999999999 -680.9976067841753)"></path><path d="M6.75 0.22Q4.72 0.22 3.44-1.64Q2.16-3.51 2.16-6.30L2.16-6.30Q2.16-9.67 2.61-12.49Q3.06-15.30 4.09-18.45L4.09-18.45Q4.54-19.80 5.35-20.38Q6.17-20.97 7.92-20.97L7.92-20.97Q8.91-20.97 9.29-20.65Q9.67-20.34 9.67-19.71L9.67-19.71Q9.67-19.35 9.18-17.28L9.18-17.28Q8.73-15.62 8.46-14.26L8.46-14.26Q7.56-9.54 7.56-7.96L7.56-7.96Q7.56-7.02 7.79-6.64Q8.01-6.25 8.50-6.25L8.50-6.25Q9.18-6.25 10.19-7.60Q11.21-8.96 12.35-11.70Q13.50-14.45 14.58-18.45L14.58-18.45Q14.94-19.80 15.68-20.38Q16.43-20.97 17.91-20.97L17.91-20.97Q18.95-20.97 19.35-20.72Q19.75-20.47 19.75-19.80L19.75-19.80Q19.75-18.68 18.63-13.63L18.63-13.63Q17.37-7.88 17.37-6.52L17.37-6.52Q17.37-5.67 17.73-5.20Q18.09-4.72 18.68-4.72L18.68-4.72Q19.57-4.72 20.81-5.83Q22.05-6.93 24.12-9.40L24.12-9.40Q24.66-10.04 25.33-10.04L25.33-10.04Q25.92-10.04 26.26-9.49Q26.59-8.96 26.59-8.01L26.59-8.01Q26.59-6.21 25.74-5.22L25.74-5.22Q23.80-2.83 21.58-1.30Q19.35 0.22 16.52 0.22L16.52 0.22Q14.35 0.22 13.34-1.44Q12.33-3.10 12.33-6.12L12.33-6.12Q11.56-3.06 10.04-1.42Q8.50 0.22 6.75 0.22L6.75 0.22ZM11.61-23.94Q9.54-23.94 7.96-24.79Q6.39-25.65 5.54-27.04Q4.68-28.44 4.68-30.02L4.68-30.02Q4.68-31.14 5.40-31.84Q6.12-32.53 7.25-32.53L7.25-32.53Q8.41-32.53 8.96-31.99Q9.49-31.45 9.81-30.15L9.81-30.15Q10.26-28.26 12.29-28.26L12.29-28.26Q14.40-28.26 15.93-29.45Q17.46-30.64 18.13-32.35L18.13-32.35Q18.50-33.25 18.95-33.64Q19.39-34.02 20.11-34.02L20.11-34.02Q20.79-34.02 21.26-33.50Q21.73-32.98 21.73-32.22L21.73-32.22L21.64-31.68Q21.20-29.83 19.98-28.08Q18.77-26.32 16.65-25.13Q14.54-23.94 11.61-23.94L11.61-23.94Z" transform="translate(-10.895 0), rotate(-9.175532284825781 14.3775 -680.9976067841753)"></path><path d="" transform="translate(-6.4624999999999995 0), rotate(-10.796584236619605 0 -680.9976067841753)"></path><path d="M44.37-7.92Q44.95-7.92 45.29-7.38Q45.63-6.84 45.63-5.94L45.63-5.94Q45.63-4.95 45.34-4.37Q45.05-3.78 44.32-3.28L44.32-3.28Q41.49-1.35 38.20 0.40L38.20 0.40Q37.21 8.05 34.81 11.65Q32.40 15.25 27.99 15.25L27.99 15.25Q25.02 15.25 23.38 13.86Q21.73 12.46 21.73 10.04L21.73 10.04Q21.73 7.60 22.97 5.83Q24.21 4.05 26.46 2.52Q28.71 0.99 33.57-1.75L33.57-1.75L33.62-2.29Q27.90-2.29 27.90-6.66L27.90-6.66Q27.90-8.69 28.57-13.32L28.57-13.32Q26.32-6.71 22.88-3.24Q19.44 0.22 14.94 0.22L14.94 0.22Q11.16 0.22 9.22-1.87Q7.29-3.96 7.29-7.47L7.29-7.47Q7.29-9.45 7.88-12.29L7.88-12.29L10.66-25.15Q10.75-25.52 11.09-27.13Q11.43-28.75 11.43-30.64L11.43-30.64Q11.43-31.72 11.00-32.27Q10.57-32.80 9.86-32.80L9.86-32.80Q8.50-32.80 6.71-31.52Q4.91-30.24 2.92-27.58L2.92-27.58Q2.29-26.73 1.53-26.73L1.53-26.73Q0.90-26.73 0.43-27.34Q-0.04-27.95-0.04-28.71L-0.04-28.71Q-0.04-30.11 1.21-31.86L1.21-31.86Q5.80-38.16 11.97-38.16L11.97-38.16Q14.71-38.16 16.27-36.49Q17.82-34.83 17.82-31.59L17.82-31.59Q17.82-29.29 17.50-27.36Q17.19-25.43 16.43-22.09L16.43-22.09L14.58-13.86Q14.49-13.46 14.26-12.42Q14.04-11.38 13.90-10.46Q13.77-9.54 13.77-8.64L13.77-8.64Q13.77-7.20 14.58-6.34Q15.39-5.49 16.88-5.49L16.88-5.49Q19.57-5.49 22.34-8.37Q25.11-11.25 27.47-17.66Q29.83-24.07 31.14-34.06L31.14-34.06Q31.45-36.36 32.06-37.26Q32.67-38.16 34.42-38.16L34.42-38.16Q36-38.16 36.77-37.21Q37.53-36.27 37.53-34.16L37.53-34.16Q37.53-33.03 37.19-30.71Q36.85-28.39 36.41-25.74L36.41-25.74Q35.01-17.86 34.42-12.78L34.42-12.78L34.29-11.52Q34.06-9.81 34.06-9.04L34.06-9.04Q34.06-7.83 34.65-7.42Q35.23-7.02 36.90-7.06L36.90-7.06Q37.03-7.11 37.39-7.11L37.39-7.11Q38.84-7.11 38.70-4.77L38.70-4.77Q41.40-6.34 43.34-7.56L43.34-7.56Q43.92-7.92 44.37-7.92L44.37-7.92ZM28.62 10.44Q29.92 10.44 30.96 8.78Q31.99 7.11 32.76 3.38L32.76 3.38Q30.11 4.86 28.78 6.19Q27.45 7.51 27.45 9.18L27.45 9.18Q27.45 9.76 27.77 10.10Q28.08 10.44 28.62 10.44L28.62 10.44Z" transform="translate(-20.525 0), rotate(-13.3170013213977 22.792499999999997 -680.9976067841753)"></path><path d="M6.75 0.22Q4.72 0.22 3.44-1.64Q2.16-3.51 2.16-6.30L2.16-6.30Q2.16-9.67 2.61-12.49Q3.06-15.30 4.09-18.45L4.09-18.45Q4.54-19.80 5.35-20.38Q6.17-20.97 7.92-20.97L7.92-20.97Q8.91-20.97 9.29-20.65Q9.67-20.34 9.67-19.71L9.67-19.71Q9.67-19.35 9.18-17.28L9.18-17.28Q8.73-15.62 8.46-14.26L8.46-14.26Q7.56-9.54 7.56-7.96L7.56-7.96Q7.56-7.02 7.79-6.64Q8.01-6.25 8.50-6.25L8.50-6.25Q9.18-6.25 10.19-7.60Q11.21-8.96 12.35-11.70Q13.50-14.45 14.58-18.45L14.58-18.45Q14.94-19.80 15.68-20.38Q16.43-20.97 17.91-20.97L17.91-20.97Q18.95-20.97 19.35-20.72Q19.75-20.47 19.75-19.80L19.75-19.80Q19.75-18.68 18.63-13.63L18.63-13.63Q17.37-7.88 17.37-6.52L17.37-6.52Q17.37-5.67 17.73-5.20Q18.09-4.72 18.68-4.72L18.68-4.72Q19.57-4.72 20.81-5.83Q22.05-6.93 24.12-9.40L24.12-9.40Q24.66-10.04 25.33-10.04L25.33-10.04Q25.92-10.04 26.26-9.49Q26.59-8.96 26.59-8.01L26.59-8.01Q26.59-6.21 25.74-5.22L25.74-5.22Q23.80-2.83 21.58-1.30Q19.35 0.22 16.52 0.22L16.52 0.22Q14.35 0.22 13.34-1.44Q12.33-3.10 12.33-6.12L12.33-6.12Q11.56-3.06 10.04-1.42Q8.50 0.22 6.75 0.22L6.75 0.22Z" transform="translate(-10.895 0), rotate(-16.25137852579706 14.3775 -680.9976067841753)"></path><path d="M26.19-10.04Q26.77-10.04 27.11-9.49Q27.45-8.96 27.45-8.01L27.45-8.01Q27.45-6.21 26.59-5.22L26.59-5.22Q24.66-2.83 22.43-1.30Q20.20 0.22 17.37 0.22L17.37 0.22Q14.98 0.22 13.50-1.48L13.50-1.48Q10.93 0.18 8.14 0.22L8.14 0.22Q7.56 8.91 5.49 14.74Q3.42 20.56-0.58 20.56L-0.58 20.56Q-3.01 20.56-4.18 18.81Q-5.35 17.05-5.35 13.95L-5.35 13.95Q-5.35 9.54-3.33 3.67Q-1.30-2.21 2.92-9.27L2.92-9.27Q2.92-15.84 2.83-18.40L2.83-18.40Q2.79-19.71 3.87-20.47Q4.95-21.24 6.57-21.24L6.57-21.24Q7.51-21.24 7.94-20.86Q8.37-20.47 8.41-19.35L8.41-19.35Q8.41-18.22 8.46-17.68L8.46-17.68Q9.90-19.48 11.29-20.27Q12.69-21.06 14.26-21.06L14.26-21.06Q16.79-21.06 18.38-19.04Q19.98-17.01 19.98-13.72L19.98-13.72Q19.98-11.34 19.21-9.09Q18.45-6.84 17.10-5.00L17.10-5.00Q18.04-4.72 18.68-4.72L18.68-4.72Q20.16-4.72 21.51-5.80Q22.86-6.88 24.97-9.40L24.97-9.40Q25.52-10.04 26.19-10.04L26.19-10.04ZM8.37-4.09Q9.99-4.46 11.36-5.87Q12.73-7.29 13.54-9.38Q14.35-11.47 14.35-13.77L14.35-13.77Q14.35-15.12 13.81-15.82Q13.28-16.52 12.38-16.52L12.38-16.52Q10.75-16.52 8.46-13.09L8.46-13.09Q8.41-11.12 8.41-7.29L8.41-7.29Q8.41-5.22 8.37-4.09L8.37-4.09ZM-0.22 16.16Q0.99 16.16 1.80 10.87Q2.61 5.58 2.83-2.29L2.83-2.29Q0.90 2.21-0.22 6.30Q-1.35 10.39-1.35 13.18L-1.35 13.18Q-1.35 14.63-1.01 15.39Q-0.67 16.16-0.22 16.16L-0.22 16.16Z" transform="translate(-11.3225 0), rotate(-18.32631568489136 11.0475 -680.9976067841753)"></path><path d="M5.35 0.22Q3.65 0.22 2.95-1.57Q2.25-3.38 2.25-7.33L2.25-7.33Q2.25-13.18 3.92-18.45L3.92-18.45Q4.32-19.75 5.24-20.36Q6.17-20.97 7.83-20.97L7.83-20.97Q8.73-20.97 9.09-20.75Q9.45-20.52 9.45-19.89L9.45-19.89Q9.45-19.17 8.78-16.65L8.78-16.65Q8.69-16.34 8.39-15.21Q8.10-14.08 7.85-12.58Q7.60-11.07 7.51-9.27L7.51-9.27Q9.13-15.57 11.61-18.27Q14.08-20.97 17.59-20.97L17.59-20.97Q19.93-20.97 21.26-19.51Q22.59-18.04 22.59-15.75L22.59-15.75Q22.59-13.86 21.76-12.55Q20.93-11.25 19.57-11.25L19.57-11.25Q18.72-11.25 18.20-11.65Q17.68-12.06 17.68-12.78L17.68-12.78Q17.68-13.09 17.77-13.50Q17.86-13.90 17.91-14.08L17.91-14.08Q18.13-14.76 18.13-15.34L18.13-15.34Q18.13-16.56 16.96-16.56L16.96-16.56Q16.06-16.56 15.21-15.64Q14.35-14.71 13.84-13.16Q13.32-11.61 13.32-9.81L13.32-9.81Q13.32-7.38 14.45-5.92Q15.57-4.46 17.68-4.46L17.68-4.46Q19.35-4.46 20.65-5.56Q21.96-6.66 24.25-9.40L24.25-9.40Q24.79-10.04 25.47-10.04L25.47-10.04Q26.05-10.04 26.39-9.49Q26.73-8.96 26.73-8.01L26.73-8.01Q26.73-6.21 25.88-5.22L25.88-5.22Q23.85-2.79 21.82-1.28Q19.80 0.22 17.23 0.22L17.23 0.22Q15.12 0.22 13.39-0.70Q11.65-1.62 10.57-2.92Q9.49-4.23 9.18-5.44L9.18-5.44Q9.09-5.08 8.50-2.92L8.50-2.92Q8.01-1.13 7.36-0.45Q6.71 0.22 5.35 0.22L5.35 0.22Z" transform="translate(-10.9625 0), rotate(-20.407556805198166 14.49 -680.9976067841753)"></path><path d="M7.69 0.22Q4.91 0.22 3.24-1.80Q1.57-3.82 1.57-7.11L1.57-7.11Q1.57-10.71 3.24-13.93Q4.91-17.14 7.67-19.10Q10.44-21.06 13.54-21.06L13.54-21.06Q14.54-21.06 14.87-20.68Q15.21-20.29 15.43-19.30L15.43-19.30Q16.38-19.48 17.41-19.48L17.41-19.48Q19.62-19.48 19.62-17.91L19.62-17.91Q19.62-16.96 18.95-13.41L18.95-13.41Q17.91-8.23 17.91-6.21L17.91-6.21Q17.91-5.54 18.25-5.13Q18.59-4.72 19.13-4.72L19.13-4.72Q19.98-4.72 21.20-5.83Q22.41-6.93 24.48-9.40L24.48-9.40Q25.02-10.04 25.70-10.04L25.70-10.04Q26.28-10.04 26.62-9.49Q26.95-8.96 26.95-8.01L26.95-8.01Q26.95-6.21 26.10-5.22L26.10-5.22Q24.25-2.92 22.18-1.35Q20.11 0.22 18.18 0.22L18.18 0.22Q16.70 0.22 15.46-0.79Q14.22-1.80 13.59-3.55L13.59-3.55Q11.25 0.22 7.69 0.22L7.69 0.22ZM9.31-4.32Q10.30-4.32 11.21-5.49Q12.11-6.66 12.51-8.59L12.51-8.59L14.17-16.88Q12.29-16.83 10.69-15.46Q9.09-14.08 8.14-11.83Q7.20-9.58 7.20-7.06L7.20-7.06Q7.20-5.67 7.76-5.00Q8.32-4.32 9.31-4.32L9.31-4.32Z" transform="translate(-11.075 0), rotate(-22.465683401059113 14.264999999999999 -680.9976067841753)"></path></g></svg></g><g transform="rotate(0 0 0)"><svg data-root-id="1492114761197" xmlns="http://www.w3.org/2000/svg" y="385" viewBox="-76.7459945678711 -39.93309783935547 160.00396728515625 58.6453971862793" x="207.5" height="58.65" width="160" fontUrl="http://fonts.gstatic.com/s/baskervville/v3/YA9Ur0yU4l_XOrogbkun3kQgt5OohvbJ9A.ttf" zoom="1" editorType="buyer" data-layer-role="brandName" style="position: absolute; top: 385px; width: 160px; height: 58.65px; left: 207.5px;"><g data-horizontal-grow="center" zoom="1" root="[object Object]" style="fill: rgb(0, 0, 0); fill-opacity: 1;"><path d="M33.74-24.44Q33.74-20.95 31.94-18.04Q30.14-15.13 26.69-13.28Q23.25-11.44 18.49-11.11L18.49-11.11L16.73-1.23Q15.70 4.47 11.15 4.47L11.15 4.47Q8.65 4.47 6.54 2.99Q4.43 1.52 3.16-1.52Q1.89-4.55 1.89-8.98L1.89-8.98Q1.89-17.30 4.57-23.10Q7.26-28.91 11.79-31.80Q16.32-34.69 21.77-34.69L21.77-34.69Q25.63-34.69 28.31-33.33Q31.00-31.98 32.37-29.66Q33.74-27.35 33.74-24.44L33.74-24.44ZM19.23-15.33Q27.63-16.40 27.63-24.07L27.63-24.07Q27.63-26.77 25.85-28.47Q24.07-30.18 20.34-30.18L20.34-30.18Q16.11-30.18 12.98-27.51Q9.84-24.85 8.14-20.11Q6.44-15.38 6.44-9.31L6.44-9.31Q6.44-6.77 6.95-4.80Q7.46-2.83 8.26-1.74Q9.06-0.66 9.80-0.66L9.80-0.66Q10.82-0.66 11.36-3.49L11.36-3.49L12.71-11.23Q11.11-11.48 11.32-11.44L11.32-11.44Q10.09-11.64 9.72-12.20Q9.35-12.75 9.35-13.61L9.35-13.61Q9.35-14.51 9.86-15.05Q10.37-15.58 11.28-15.58L11.28-15.58Q11.69-15.58 11.89-15.54L11.89-15.54Q12.87-15.38 13.41-15.33L13.41-15.33Q13.94-18.53 14.92-23.90L14.92-23.90Q15.17-25.30 16.05-25.89Q16.93-26.49 18.12-26.49L18.12-26.49Q19.48-26.49 20.07-25.97Q20.66-25.46 20.66-24.35L20.66-24.35Q20.66-23.70 20.58-23.29L20.58-23.29L19.23-15.33Z" transform="translate(-15.260000000000002 0), rotate(3.186399109624189 17.814500000000002 -1136.1468025198114)"></path><path d="M7.01 0.21Q4.47 0.21 2.95-1.64Q1.44-3.49 1.44-6.48L1.44-6.48Q1.44-9.76 2.95-12.69Q4.47-15.62 6.99-17.40Q9.51-19.19 12.34-19.19L12.34-19.19Q13.24-19.19 13.55-18.84Q13.86-18.49 14.06-17.59L14.06-17.59Q14.92-17.75 15.87-17.75L15.87-17.75Q17.88-17.75 17.88-16.32L17.88-16.32Q17.88-15.46 17.26-12.22L17.26-12.22Q16.32-7.50 16.32-5.66L16.32-5.66Q16.32-5.04 16.63-4.67Q16.93-4.31 17.43-4.31L17.43-4.31Q18.20-4.31 19.31-5.31Q20.42-6.31 22.30-8.57L22.30-8.57Q22.80-9.14 23.41-9.14L23.41-9.14Q23.94-9.14 24.25-8.65Q24.56-8.16 24.56-7.30L24.56-7.30Q24.56-5.66 23.78-4.76L23.78-4.76Q22.10-2.67 20.21-1.23Q18.33 0.21 16.56 0.21L16.56 0.21Q15.21 0.21 14.08-0.72Q12.96-1.64 12.38-3.24L12.38-3.24Q10.25 0.21 7.01 0.21L7.01 0.21ZM8.49-3.94Q9.39-3.94 10.21-5.00Q11.03-6.07 11.40-7.83L11.40-7.83L12.92-15.38Q11.19-15.33 9.74-14.08Q8.28-12.83 7.42-10.78Q6.56-8.73 6.56-6.44L6.56-6.44Q6.56-5.17 7.07-4.55Q7.58-3.94 8.49-3.94L8.49-3.94Z" transform="translate(-10.135 0), rotate(1.8324414024751912 12.997000000000002 -1136.1468025198114)"></path><path d="M23.62-9.14Q24.15-9.14 24.46-8.65Q24.76-8.16 24.76-7.30L24.76-7.30Q24.76-5.66 23.98-4.76L23.98-4.76Q22.10-2.58 20.11-1.19Q18.12 0.21 15.58 0.21L15.58 0.21Q13.45 0.21 12.59-1.11Q11.73-2.42 11.73-5.04L11.73-5.04Q11.73-6.15 11.93-7.71L11.93-7.71Q8.32-7.71 6.93-7.79L6.93-7.79Q6.85-6.64 6.85-6.19L6.85-6.19L6.85-5.33Q6.81-2.79 6.72-1.76Q6.64-0.74 6.23-0.27Q5.82 0.21 4.88 0.21L4.88 0.21Q3.32 0.21 2.69-1.44Q2.05-3.08 2.05-6.68L2.05-6.68Q2.05-12.01 3.57-16.81L3.57-16.81Q3.94-18.00 4.76-18.55Q5.58-19.11 7.13-19.11L7.13-19.11Q7.95-19.11 8.28-18.90Q8.61-18.70 8.61-18.12L8.61-18.12Q8.61-17.47 8.00-15.17L8.00-15.17Q7.67-13.82 7.38-11.89L7.38-11.89L12.63-11.89Q13.04-13.82 13.82-16.81L13.82-16.81Q14.15-18.04 14.82-18.57Q15.50-19.11 16.85-19.11L16.85-19.11Q17.79-19.11 18.16-18.88Q18.53-18.66 18.53-18.04L18.53-18.04Q18.53-17.02 17.51-12.42L17.51-12.42Q16.36-7.18 16.36-5.95L16.36-5.95Q16.36-5.17 16.69-4.74Q17.02-4.31 17.55-4.31L17.55-4.31Q18.37-4.31 19.50-5.31Q20.62-6.31 22.51-8.57L22.51-8.57Q23.00-9.14 23.62-9.14L23.62-9.14Z" transform="translate(-10.2375 0), rotate(0.7462628874567638 13.407 -1136.1468025198114)"></path><path d="M22.96-9.06Q23.49-9.06 23.80-8.55Q24.11-8.04 24.11-7.26L24.11-7.26Q24.11-6.31 23.82-5.78Q23.53-5.25 22.92-4.84L22.92-4.84Q19.39-2.46 17.75-1.31L17.75-1.31L15.13 0.45Q13.57 8.94 11.05 13.80Q8.53 18.66 4.63 18.66L4.63 18.66Q2.54 18.66 1.23 17.36Q-0.08 16.07-0.08 13.98L-0.08 13.98Q-0.08 11.07 2.21 7.73Q4.51 4.39 10.82-0.49L10.82-0.49L11.07-2.09Q10.37-0.98 9.25-0.39Q8.12 0.21 7.01 0.21L7.01 0.21Q4.47 0.21 2.95-1.64Q1.44-3.49 1.44-6.48L1.44-6.48Q1.44-9.76 2.95-12.69Q4.47-15.62 6.99-17.40Q9.51-19.19 12.34-19.19L12.34-19.19Q13.24-19.19 13.55-18.84Q13.86-18.49 14.06-17.59L14.06-17.59Q14.84-17.75 15.87-17.75L15.87-17.75Q16.89-17.75 17.32-17.45Q17.75-17.14 17.75-16.24L17.75-16.24Q17.75-15.74 17.71-15.46L17.71-15.46Q17.55-14.19 16.69-9.02L16.69-9.02Q16.52-8.04 16.34-6.87Q16.15-5.70 15.95-4.39L15.95-4.39Q19.11-6.85 22.02-8.73L22.02-8.73Q22.55-9.06 22.96-9.06L22.96-9.06ZM8.49-3.94Q9.43-3.94 10.29-5.08Q11.15-6.23 11.52-8.36L11.52-8.36L12.83-15.38Q11.15-15.33 9.72-14.08Q8.28-12.83 7.42-10.78Q6.56-8.73 6.56-6.44L6.56-6.44Q6.56-5.17 7.07-4.55Q7.58-3.94 8.49-3.94L8.49-3.94ZM5.08 14.68Q6.11 14.68 7.40 12.22Q8.69 9.76 9.88 4.39L9.88 4.39Q6.72 7.09 5.33 9.27Q3.94 11.44 3.94 13.08L3.94 13.08Q3.94 13.78 4.20 14.23Q4.47 14.68 5.08 14.68L5.08 14.68Z" transform="translate(-10.3195 0), rotate(-0.3497524142113577 12.013 -1136.1468025198114)"></path><path d="M20.25-9.14Q20.79-9.14 21.09-8.65Q21.40-8.16 21.40-7.30L21.40-7.30Q21.40-5.66 20.62-4.76L20.62-4.76Q19.11-2.91 16.34-1.35Q13.57 0.21 10.41 0.21L10.41 0.21Q6.11 0.21 3.73-2.13Q1.35-4.47 1.35-8.53L1.35-8.53Q1.35-11.36 2.54-13.80Q3.73-16.24 5.84-17.67Q7.95-19.11 10.62-19.11L10.62-19.11Q13.00-19.11 14.43-17.69Q15.87-16.28 15.87-13.86L15.87-13.86Q15.87-11.03 13.84-9.00Q11.81-6.97 6.97-5.78L6.97-5.78Q8.00-3.90 10.87-3.90L10.87-3.90Q12.71-3.90 15.07-5.19Q17.43-6.48 19.15-8.57L19.15-8.57Q19.64-9.14 20.25-9.14L20.25-9.14ZM9.92-15.09Q8.41-15.09 7.36-13.33Q6.31-11.56 6.31-9.06L6.31-9.06L6.31-8.98Q8.73-9.55 10.13-10.70Q11.52-11.85 11.52-13.37L11.52-13.37Q11.52-14.15 11.09-14.62Q10.66-15.09 9.92-15.09L9.92-15.09Z" transform="translate(-8.5565 0), rotate(-1.356143659737819 11.3775 -1136.1468025198114)"></path><path d="M23.78-12.59Q24.31-12.59 24.60-12.05Q24.89-11.52 24.89-10.70L24.89-10.70Q24.89-9.68 24.60-9.12Q24.31-8.57 23.70-8.36L23.70-8.36Q21.24-7.50 18.29-7.38L18.29-7.38Q17.47-3.98 15.19-1.89Q12.92 0.21 10.17 0.21L10.17 0.21Q6.03 0.21 4.14-2.95Q2.25-6.11 2.25-12.10L2.25-12.10Q2.25-17.38 3.57-23.60Q4.88-29.81 7.40-34.17Q9.92-38.54 13.41-38.54L13.41-38.54Q15.29-38.54 16.44-36.92Q17.59-35.30 17.59-32.72L17.59-32.72Q17.59-29.36 16.32-26.04Q15.05-22.71 12.10-19.07L12.10-19.07Q14.84-18.86 16.56-16.79Q18.29-14.72 18.61-11.69L18.61-11.69Q20.54-11.81 23.21-12.51L23.21-12.51Q23.45-12.59 23.78-12.59L23.78-12.59ZM12.46-34.48Q11.64-34.48 10.68-32.04Q9.72-29.60 8.90-25.42Q8.08-21.24 7.67-16.28L7.67-16.28Q10.37-21.24 11.99-25.03Q13.61-28.82 13.61-31.78L13.61-31.78Q13.61-33.09 13.30-33.78Q13.00-34.48 12.46-34.48L12.46-34.48ZM10.33-4.14Q11.60-4.14 12.59-5.21Q13.57-6.27 13.90-8.28L13.90-8.28Q12.63-9.14 11.95-10.54Q11.28-11.93 11.28-13.49L11.28-13.49Q11.28-14.06 11.44-15.05L11.44-15.05L11.32-15.05Q9.63-15.05 8.51-13.39Q7.38-11.73 7.38-8.94L7.38-8.94Q7.38-6.60 8.26-5.37Q9.14-4.14 10.33-4.14L10.33-4.14Z" transform="translate(-10.1965 0), rotate(-2.355977047497817 13.571000000000002 -1136.1468025198114)"></path><path d="M22.96-9.06Q23.49-9.06 23.80-8.55Q24.11-8.04 24.11-7.26L24.11-7.26Q24.11-6.31 23.82-5.78Q23.53-5.25 22.92-4.84L22.92-4.84L15.05 0.45Q13.49 8.94 10.97 13.80Q8.45 18.66 4.55 18.66L4.55 18.66Q2.46 18.66 1.15 17.36Q-0.16 16.07-0.16 13.98L-0.16 13.98Q-0.16 12.05 0.72 10.04Q1.60 8.04 4.00 5.43Q6.40 2.83 10.78-0.53L10.78-0.53L10.91-1.48Q11.19-2.99 11.56-5.82L11.56-5.82Q10.74-2.87 9.27-1.33Q7.79 0.21 6.15 0.21L6.15 0.21Q4.31 0.21 3.14-1.50Q1.97-3.20 1.97-5.74L1.97-5.74Q1.97-8.81 2.38-11.38Q2.79-13.94 3.73-16.81L3.73-16.81Q4.14-18.04 4.88-18.57Q5.62-19.11 7.22-19.11L7.22-19.11Q8.12-19.11 8.47-18.82Q8.81-18.53 8.81-17.96L8.81-17.96Q8.81-17.63 8.36-15.74L8.36-15.74Q7.95-14.23 7.71-13.00L7.71-13.00Q7.38-11.32 7.13-9.78Q6.89-8.24 6.89-7.26L6.89-7.26Q6.89-5.70 7.75-5.70L7.75-5.70Q8.36-5.70 9.29-6.93Q10.21-8.16 11.25-10.66Q12.30-13.16 13.28-16.81L13.28-16.81Q13.61-18.04 14.29-18.57Q14.96-19.11 16.32-19.11L16.32-19.11Q17.26-19.11 17.63-18.86Q18.00-18.61 18.00-18.04L18.00-18.04Q18.00-17.02 16.93-10.99L16.93-10.99L15.87-4.39Q19.02-6.77 22.02-8.73L22.02-8.73Q22.55-9.06 22.96-9.06L22.96-9.06ZM5.00 14.68Q6.03 14.68 7.30 12.30Q8.57 9.92 9.84 4.39L9.84 4.39Q6.68 7.05 5.27 9.25Q3.85 11.44 3.85 13.08L3.85 13.08Q3.85 13.78 4.12 14.23Q4.39 14.68 5.00 14.68L5.00 14.68Z" transform="translate(-10.3195 0), rotate(-3.449806396577118 11.972000000000001 -1136.1468025198114)"></path></g></svg></g></svg>